<svg id="NYC" xmlns="http://www.w3.org/2000/svg" viewBox="0 0 2000 1977.6"><defs><style>.cls-1{fill:#c7eae5;}.cls-2{fill:#f5f5f5;}.cls-3{fill:#e6e6e6;}.cls-4{fill:#ccc;}.cls-5{fill:#909090;}</style></defs><title>5_Boroughs_Labels_New_York_City_Map3</title><g id="Layer_12" data-name="Layer 12"><rect id="Water" class="cls-1" width="2000" height="1977.6"/></g><g id="NJ"><path id="path88" class="cls-2" d="M-.3,0H1135.8c-2.4,10.9-6.6,21.1-10.9,31.3-4.5,10.6-7.8,21.9-10.9,33.1s-2.8,22.8-5.7,33.9c-6.6,25.2-21.4,48.9-30.1,73.4-3.9,10.9-5.7,22.2-10,32.7-4.8,11.8-9.8,23.1-14.7,35.2-3.5,8.6-15.3,22.8-13.6,32.3.7,4,4.4,7,2,11.6-3.2,6-10.6.5-13.1,7.2-3.4,8.9-.7,19.4-3.2,28.6-2.6,9.9-10.3,19.5-15.5,28.1-3,4.9-7,8.5-11.7,11.8-2.7,1.9-8.4,3.8-9.2,7.3-1.8,7.3,8.4,3.6,8.3,8.2-.1,1.8-9.9,6.2-11.7,8.3-3.9,4.5-4.1,7.2-.5,11.5,4.1,5.2,4,4.8,1.1,10.9-4.8,10.2-7.5,21.6-13.5,31.9-2.7,4.6-4.5,9.8-6.7,14.4-2.6,5.6-6.6,9.4-9.9,14.3-2.7,4.2-1.8,8.6-4.5,12.5s-6.6,6.6-9.7,10.1c-2.5,2.8-7.1,7.2-4,11.1s10.6.3,7.2,7c-2.5,5-7.5,1.9-11.4,4.4-1.5,1-4.1,2.8-2.8,5.5.9,1.9,3.3.5,4.8,1.8,4.7,4-.2,5.4-4.8,6.4-5.5,1.2-6.4,1.6-9.5,6.6-4.6,7.6-29.3,36.9-13.2,41.9,0,2.7-1.7,4-2.8,6.4-.7,1.6-.7,4-1.5,6.2-2.7,7.1-6.1,0-11,2.2-3.3,1.4-4.3,7.7-6.5,10.5-2.5,3.1-8.6,5.4-8.3,9.9.2,2.6,3.6,2.6,3.2,5.5-.1.8-3.7,3.5-4.5,4.3a64.63,64.63,0,0,0-8.1,11.3c-2.2,3.9-4.2,8-6.7,11.9-2.6,4.1-7,6.9-6.5,12.1.3,3.1,3.1,1.6,1.2,5.5-1.3,2.7-2.1,2.1-4.5,2.7-3.5.9-13.1-1.8-7.2,4,1.7,1.7,11.9,5.4,3.7,6.6-4.9.7-8.2-6.5-13.2-3.9,2.5,2.8,5.4,5.2,7.8,8.2-2.5,3.6-.1,6.7-3.2,10.5-2.1,2.6-6.2,3.7-8.9,5.6-8.7,6.1-5.5,17.4-9.5,26.1-1.4,2.9-4.8,4.3-6.9,6.3-6.7,6.4-5.2,10.6,3.7,12-.6,5-8.7,1.5-10.3,6.4a33,33,0,0,1,6.4,1.3c-.3,5.4-9,1.1-9.2,6.4a19.58,19.58,0,0,0,5.3,1.3c.5,6.7-13,4.4-16.9,5.4-5.1,1.3-6.8,4.1-1.7,7.2,3.8,2.2,9.6.1,13.8,2.6s5.6,8.3,2.2,11.7c-1.4,1.4-3.7.5-5.4,2.2-1.3,1.4-1.5,4.4-2.3,6.1-4.9,10.5.7,16.7,2.8,27.5,1,5.3,1.1,9.8-1.8,13.6-3.3,4.2-9.7,6.2-12.1,10.7,5.1,1.5,12.5,5,8.9,11.2-3.3,5.6-6.2,9.7-11.5,13.3-2.3,1.5-5.8,2.6-3.3,5.5.7.9,3.9-.7,5,.5,2,2-.6,2-.2,3.2s-.1,2.4.7,3.9c.3.5,2.6,1.4,3.2,1.9,3.3,3.1,4.8,4.5,2.3,7.9s-8.6,3.2-12.6,3.4c-4.9.3-10.3,2.5-3.9,4.9,4.4,1.7,8.4.6,12.5,4,3.1,2.7,3.3,7.9-2.6,8.1-4.8.1-6.9-5.9-12.7-2.3s-1.6,6.8,3.3,7.3c2.9.3,11.4-1.1,10.5,3.9-.8,4-8.5,1.2-11.1,3.8,2,2,13.6,2.7,4.5,6.5-4.5,1.8-10.5-1.7-13.1,4,4.5,2.5,10.1,0,14.3,2,5.9,2.8,2.9,6.4-1.7,7.9-6.6,2.1-6.4,1.8-8.7,8.1-1.6,4.2-4.5,9.5-9.5,10.5-3.8.8-10-.9-13.3-2.1-6.1-2.2-3.7-4.7-7-8.9-4.9-6.3-5.7,1.2-7.7,4-3.3,4.8-9.3-.3-12.1,2.7-3.5,3.8,18.2,7.8,21.3,8.1,5,.6,29.9.1,28.6,8.2a96.84,96.84,0,0,1-24.1-1.5c-2.3-.5-15.1-3.7-14.9,1,.1,3.5,8.8,1.2,7.6,8.2-.6,3.9-6.6,9.6-8.8,13.2-2.7,4.4-5.3,8.9-8.8,12.7-3.9,4.1-9.2,4.1-13.1,7.2-6.5,5.1,1.5,4.1,4,7.5,2.1,2.9-2.4,11-4.9,13.5-4,4-4.2.2-7.8-.5-4.3-.9-6.9.6-10.6,3.5-3.5,2.8-3.1.8-.9,5,1.6,2.9,5.2,2.9,2.6,7.3-1.6,2.7-5.3,3.5-8.2,3.3-6.7-.4-8.5-10-11.9-15.4-1.6-2.6-12.4-16-12.3-4.5-6,.8-9.4-11.2-13.5.1-3.1,8.6,7.2,7.4,13.5,8.9,1.9,6.7-6.3,3.1-9.8,3.8-5.3,1-5,2.8-4.9,8.3,0,8.8,2,20.7-1.8,28.5-10.4,1.6-13.6-16.4-26.1-15.3-15.7,1.4,1.9,15.7,7.6,19.1,6.8,4.1,20.5,10.1,11,19.4-5.4,5.2-5.5.6-9.4-2.6-4.5-3.9-8.1-2.1-4.8,3.1,1.2,2,4.1,2.5,5.2,4.6,1.6,3-.1,2.2-.5,5.4-.9,6,.9,6.4,6.1,7.9.8,2.8-1.6,8.1-4.3,8.1-1.8,0-6.7-5.3-8.8-6.5-5.7-3.2-10.5-5.8-17.5-5.5-1.8,9.6,12.4,14.6,19.7,18.2s14.4,7.6,21.7,11.5c5,2.7,11.4,7.3,17.3,7.7a21.22,21.22,0,0,0-2.1,3.6c-1.3,4.9-3,11.3-8.3,10.4-3.5-.5-8-5-11-7a220.9,220.9,0,0,0-30.1-15.8c-5.3-2.3-10.8-5.1-16-7.7-7.5-3.8-2.3-5-6.1-10.4-3.6-5.2-22.7-3.2-26.7.4,2.3,3.7,9.7,6.8,13.6,8.8,5.8,2.8,11.6,5.8,17.4,8.7,12.1,6,22.7,14,34.1,21,6.1,3.8,14.8,5,20.4,9.2,2.8,2.1,2.2.4,2.3,4.1,0,2.1-.9,3.5-1.6,5.4-3.8,8.6-13.8,10.2-21.2,4.8-3.3-2.5-5.4-5.6-9.4-7.8-4.2-2.2-8.7-3.8-12.8-6.2a145.49,145.49,0,0,0-20.6-10.1c-12.6-5.1-26.7-6.4-38.3-13.2-7.9-4.7-23-15.2-32-7.7s2.1,17.8,10.7,14c1.9-.8.4-3.7,4.1-2.8,1.6.4,2.8,4.2,4.1,5.3,3.4,2.8,7.6,2,11.4,3.9-2.3,5.8-2.3,11.8,5.6,14.4,1.6.5,8.3.6,9.9-.1,2.9-1.5,2.7-5.1,5.5-6.5,11.5-5.7,13.6,15.4,13.8,21.5.4,10.7,12.1,10.5,12.1,22.5,0,12.6-10.6,16.8-20.9,21.4-5.9,2.7-11.7,3.9-17.6,6.1-5.4,1.9-9.2,4.8-15.4,4.4-5.8-.3-7.4-2.2-12.1-5-5.2-3.1-9.8-3.5-15.4-4.9-5.9-1.5-19.1-16.3-22.6-4.4-.5,1.8,1.1,4.9.6,7.2-.4,1.9-1.8,3.3-2.6,4.9-2.6,4.8-4.4,6.4-8.9,9.4-11.8,7.7-24,8.8-38.1,8.8H418.4c-4.6,0-11.8-1.4-16,.6-3.8,1.8-4.9,7.6-9.3,8.8-4.6,1.2-10.3-2.9-12.5-6.6-3.6-5.9-.8-8.6,1.6-13.6,2.1-4.4,1.5-9.3,3.3-13.9,2.5-6.2,6.9-11.5,10.1-17.4,1.2-2.3,3.3-4.6,4.3-6.7.9-1.8.7-4.5,2.1-6.1,2.7-3.1,5.6-.2,8.6-1.9,3.9-2.1,6.1-11.1,9.4-14.7,2.1-2.2,4.8-3,4.4-6.6-.4-3.2-3.4-1.9-2.8-5.5.6-4,7.7-9.6,9.5-13.6,4.2-1.2,3,2.6,5.5,3.6,10.9,4.4,4.7-18.7,5.4-23.5,1.4-10.1,14.8-15.3,21.3-23,7.4-8.8,12.1-21,15.5-31.4,1-2.9,15.5-21.3,4-20.4a11.42,11.42,0,0,1,2.3-12c3.2-3.6,10.1-2.4,12.4-5.5,3.8-5.2-5-6.3-5.4-9.9-.3-3.3,4.6-6.8,6.5-9.4,5.1-6.8,6.1-15,13.9-19.2,4.7-2.6,14.6-6.1,15.4-12.4,1-7.8-10.9-4.2-12.9-12.3-1.5-6.2,3.8-12.3,1.9-18.7-1.4-4.6-7-7.8-2.7-12.5,1.5-1.7,4.5-.6,5.5-3.4,1.2-3.5-2.6-4.2-2.7-5.5-.6-7.3,11.1-16.3,16-20.8,6.9-6.4,15-7.4,17.5-17.8,3-12.5-1.4-25.4,2.7-37.4,3.9-11.2,9.2-22.1,18-30.3,7.2-6.7,11.8-10.9,21-14.1,2-.7,4-1.4,5.9-2,6.9-2.3,13.4-4.8,18.3-10.5,6.8-7.9,13.7-17.6,10.3-28.6a21.78,21.78,0,0,0-7-10c-4.4-3.1-10.1-.9-15.3,0-8.4,1.3-24.5,4-31.8-1.2-7.7-5.4-3.6-17.9-2.1-25.5,1.8-9.1,9.5-15.9,10.6-25,.5-3.9.1-6.3,1.2-10,1.3-4.3,3.3-8,3.9-12.6,1.1-7.8.4-17.5-2.3-24.6-3.2-8.4-5.4-12.1-3.7-21,3.9-20.3,22.4-33.4,33.6-50.4,5.2-8,6-12.9,15.8-16.1,3.7-1.2,10.4-1.8,8.1-7.2-1.4-3.3-9.1-6-11.9-7.8-1.9-6.5,10.1-6.8,13.7-8,5.6-1.9,9.4-4.6,13.6-9.5,8.9-10.2,12.1-20.4,25.8-24.7,10.4-3.3,21.1-6.8,32-8.4,12.3-1.8,24.8.3,36.7-3.6,15.8-5.1,25.6-18.2,28.6-34.3,1.3-6.7,4-15.4,2.2-21.9-2.2-8-8.4-14.5-12.7-21.4-5.8-9.2-1.4-17.8,3.9-26.5,4.3-7.1,14.2-13.2,15.5-21.9s-4.8-14.1-6.7-21.7c-.2-1-.4-2-.5-3-.3-5,2-7.2,2.8-11.5s-.7-9,.6-13.2c4.2,1.7,7.6,12.9,9.9,17,4.6,7.9,10.2,13.4,20.2,14.7,9.4,1.3,20.8,1.8,26.9-5.8,3.4-4.2,5.7-9.8,7.4-15.6a154.76,154.76,0,0,0,3.6-15.9c1-5.3.3-10.9,1-16.3.8-5.6,2.6-10.7,4-16.1,2.2-8.8,6.1-16.5,5.9-25.2-.3-9.3,7.5-13,14.5-18.6,4.4-3.5,4.6-5.9,5.9-11.1,1.2-4.7,4-7.9,7.2-11.6,5.5-6.1,12.4-12.3,10.9-21.2-7.6,5.3-10.4,14.5-19.1,18.9-10.4,5.2-26.6,6.8-22.8,21.7,1.6,6.4,2.2,7.6-.7,13.7a66.19,66.19,0,0,0-5.2,17.6c-2.7,15-6.8,29.1-7.6,44.4-.3,5.1-.7,12.1-2.4,18.3s-4.7,11.7-10.2,14c-8.8,3.6-24.1,3.7-30.2-4.4-3.3-4.3-5-9.3-7.6-14-2.4-4.6-6.2-6-9.5-9.6-4.2-4.6-5.2-16.1-3.6-23.7a17.85,17.85,0,0,1,1.2-3.7c2.1-4.7,4.1-7.4,2.3-13.1-2.5-7.8-11.3-11.3-13.9-18.7-2.1-5.8,1.1-12.2-.7-18.2-2.8-9.3-7.4-17.3-9.5-26.9-1.8-8.2,3.9-16.8,5-24.7,1.9-14.3-15-7.4-16.6-17.1-.7-4.2,6.5-8.1,8.9-10.9a76.83,76.83,0,0,0,8.1-11.5c2.1-3.7,3.9-7.3,4.4-11.6.7-5.9-1.7-6.7-5.9-9.5s-6.8-4-7.3-9.2c-.3-3.3,0-9.3,1.8-12,1.9-2.9,7.2-4.3,9.9-6.1,5.6-3.6,3-5.9,4.8-11.5.8-2.3,2.3-2.9,2.8-5.6.4-2.3-.3-4.8,0-7.2.6-4.7,3.1-8.3,5.4-12.7a155.84,155.84,0,0,1,16.2-24.6c2.2-2.8,6-6,7-9.4,1.5-5-.6-11.8-2.8-16C796.3,33.9,788,28,783.8,19.1c-8.7,8.8,5.4,16.2,10.4,21.4,7.4,7.7-.5,17.7-5.2,24.3a126.4,126.4,0,0,0-16.2,30.6c-3.2,8.7-4.5,19.3-10.9,26.3-3.7,4.1-8.5,7.2-12,11.6s-3,8.4-2.4,13.7c.4,4.3.7,11.9,3.5,14.7s8.7,2.3,12.5,3.5c-3.6,9-8.5,15-17.5,20.1-5.6,3.2-8.7,5.3-8.2,12.8.5,8.1,5.1,9.9,11.5,12.7,4.5,1.9,10,4.8,6.5,10.4-3.3,5.2-4.3,5-4.5,11.8-.2,5.7-.6,11.4.2,17,.9,6.7,5.4,11,8.7,17,5.3,9.7.6,20.3,4.7,29.9,2.2,5.1,7.2,5.3,10.2,9.4,2.7,3.7,1.4,8.4.7,12.7a20.47,20.47,0,0,1-.5,2.4c-2.2,9.9-7.2,18.7-7.8,29.3-.6,10.1,3.1,19.6,5.9,29.1,2.5,8.6,4.2,17.3,1.1,26.3-4,11.7-16.3,10.4-21.7,20.4-8.8,16.2,11.7,35.3,16.9,48.9,3.1,8-2.5,19.6-5.6,26.9-3.5,8.2-11,15.4-20.2,16.5-21.8,2.4-44.8-2.7-65.3,4.9-13,4.8-22.2,14.8-29.8,26.1-7.2,10.6-12.2,11-24.1,13.5-12.5,2.6-15.8,19-19.4,29.5a159.47,159.47,0,0,1-12.9,27.4c-4.1,6.8-13.1,10.3-17.7,17.8-7.1,11.4-9.2,24.1-7.2,37.4,1.7,11.6,9.8,19.4,7.8,31.8-1.7,11.2-4.3,23.3-8.8,34.1-2.4,5.7-5.8,11-8.5,16.4-4.2,8.6-2.5,11.1,1.3,19.7,4.9,11.3,17.5,19.2,30.2,18.2,9-.7,25.5-5.5,28,6.6,2.2,10.6-6.9,16-14.9,20.2a52.7,52.7,0,0,1-17.6,5.5c-12.9,1.9-21.9,4.5-31.1,14.4a56.75,56.75,0,0,0-14.1,29.2,139.81,139.81,0,0,0-2.6,19.3c-.3,6.1.9,12.6-1.2,18.4-1.8,5-14.9,23.1-21.3,21.1-4.6-1.5-5.8-7.7-11.6-6.2-4.5,1.2-5.9,7.2-8.5,10.4-8.9,11.3-13.8-2.8-17.3-9.7-5-9.8-3-16.6-2-26.9,1-9.6-.6-19.2,1.6-28.2a11.7,11.7,0,0,1,.5-2c2.6-8.7,7.9-19.8,4.8-29.1-2.5-7.4-10.6-17.2-18-19.7-10.5-3.5-27.5-.9-38.3,1-6.2,1.1-12,3.7-17.8,5.5-4.8,1.5-12.4,3-16.5,6.2-5.9,4.6-6.4,12.1-10,17.4a12.37,12.37,0,0,1-4.9,4.4c-7.8,3.9-18,3.8-26.9,3.8-11.4,0-17.3-2.1-22.4-12.6-4.1-8.3-10.5-17.3-12.3-26.4-2.1-10.4-.9-24.3.1-34.8.6-5.5,1.1-10.1,2.6-15.1,6.5-20.7,17.1-37.8,27.7-56.6,6.8-11.9,11-24.5,16.7-37.4,5.8-13.1,11.4-26.3,17.3-39.2,5.9-12.7,12.4-25.5,16.1-39,2.9-10.5,9-18.9,12.4-29,1.4-4.3.3-9-1.6-12.8-2.5-5-3.2-6.5-3.2-12.7,0-4.1-2.1-9.4-1.1-13.2,1.1-4.1,5.7-5.2,7.6-8.9,3.4-6.7,1.9-25.1-5.4-29.1-3,4.3-2.7,11.1-3.3,16.6-.6,5.8-3.4,11.2-4.3,16.6-2,12.5,3.6,21.5,5.4,32.9,1.5,9.3-5.6,17-9.5,24.6-5.3,10.2-8.5,20.7-12.4,31.5-5.7,16-11.1,31.6-20.9,46.2-7.2,10.8-15.5,19.4-19.1,32-4,13.8-12.8,26.6-18.4,40-3.6,8.5-6.9,17.6-9.8,26.4-2.1,6.4-5.6,12.6-6.3,19.3-.6,5.7-.6,12.1-.7,17.9-.2,12.9,1.4,26.6,7.5,38.1,3.2,6,6.4,12.2,9.4,18.2,2.4,4.6,3.5,8.6,8.1,11,9.6,4.8,23.1,2.6,33.5,2.2,4-.2,10,1.1,13.3-.5,5.1-2.5,7.7-8.1,10.5-13.4,2.1-4.1,4.4-8,8.1-10.1,14.6-8.2,34.1-7.2,50.1-10.2,8.1-1.6,19.2-3,25.8,3.3s5.2,21.9,3.2,29.9c-.5,2-1,4.1-1.4,6.2-2.3,10.9-3.7,22.1-6.7,32.8-3.3,11.7-6.3,23.4-6.7,35.8-.2,7.6,1.5,15.4,2.2,22.9.7,7.3,3.6,13.7,5.6,20.5,2.3,7.8-.1,15.7-2.9,22.9-2.9,7.4-4,15.9-8.4,22.9-4.6,7.4-11.4,13.4-16.7,20.5-4.3,5.7-9,15.2-15.4,18.6-.1-.2-.2-.3-.3-.5-2.7-.8-4.3-9.8-5.3-12.1-1.9-3.9-4.3-8.8-7-12.1-5.9-7.1-16.6-8.4-24.3-13.7-8.3-5.8-19.1-14.8-29.8-14.7-6.9,0-6.3,4.7-2.6,8.2,3.1,3,8.4,5.1,12.2,7.4,5.7,3.6,11.6,7.2,17.9,9.3,4.8,1.6,11,2.3,14.6,5.5,3.3,3.1,4.9,9.2,8.1,12.9,4.1,4.8,7.9,5.5,5.4,11.9-4.2,10.8-13.7,19.5-19.1,29.7-3.4,6.4-3.9,4.7-8.9.7-4.7-3.7-9.6-7.1-14.3-11-7.8-6.4-16.3-12.3-23.8-19-2.6-2.3-6.5-6.8-10.6-5.3-5.6,2-4.4,7.6-1.8,11,3.7,4.8,8.6,7.7,12.9,12,5.1,5,9.9,10.5,15.4,15.4s11,8,17.4,11.7c6.1,3.4,11.5,8.6,17.6,11.7,2.4,11-9.9,20.4-15.6,27.8-3.2,4.1-5.1,11.9-10.3,14.1-6.2,2.7-11.7-3.6-17.5-4.6-23-4-12.9,34.4-30.2,36.3-6.5.7-16-10.1-20.8-13.9-7.2-5.7-15.1-15.7-24.4-16.9-16.1-1.9,3.4,12.1,6.7,14.8,7.2,5.8,13.5,13.5,22.5,16.5,1.9.6,5.4-.3,6.5,2.2.9,2.1-2.2,4-1.5,6.1,1.5,4.6,12.9,2.6,8.9,9.9-2.4,4.4-9.2,1.8-12.8,3.2-3.9,1.6-5.9,6.4-8.2,9.5-2.6,3.5-4.8,9.7-7.9,12.5-4.8,4.4-11.8,1.5-17.3,2.7-4.4,1-8.3,5.5-12.1,7.8-4.6,2.9-8.4,5.6-13.9,6.6-4.9.9-8.5.1-12.6,3-4.8,3.4-5,5.9-9.2.1-2.9-4-4.6-6.2-10.3-2.6-3.2,2-6.2,5.9-9.5,8.1s-7.4,4.5-12.1,3.3c-5.6-1.5-4.5-5.8-6.2-10.4-3.4-9.5-12.4-12.1-20.6-16.1-12.1-5.9-3.1-11.8-4.5-22.4-.8-5.8-4.6-5.4-6.7-10.4-1.5-3.6.8-9.1,2.3-12.1,2.4-4.6,3.4-5.7-1-10-3.7-3.7-7.1-3.9-12.2-3.7-10.3.4-15.6-5.9-18.1-15.9-1.1-4.4-1.4-8.9-2.6-13.2-1.7-6.6.5-5.5,3.3-10.9,2.1-4-6.1-23.1-11.6-21.9,1.9,6.2,9.6,10.6,9.3,17.5-.2,3.9-2.7,3.4-3.9,6.5-.8,2.3,0,3.3.5,5.6,1,4.9,2.2,9.9,3.3,14.8,1.4,5.7,1.4,12.5,5.7,17.1,4.1,4.4,9.2,3,14.7,3.3,4.2.2,9.9.9,10.4,6,.5,4.7-5.4,8.2-4.4,13.8.9,5,6,5.6,7.7,10.3,1.8,4.9-1.8,9.6-2.2,13.9-1,10.4,12.1,13.9,19.4,18.6,5.3,3.4,6.1,3.6,7,10,.7,4.7,1.6,8.7,6.5,11,3.4,1.6,10.3,1.9,14.4,1.1,6-1.2,5.8-5.4,10.4-8.8,3.6-2.6,7.5-2.7,10.8,1.1,2.2,2.5,2.6,1.7.1,4.5-7.2,8.2-17.7,7.6-19.8,20.6-1.1,7.2-5.2,18.7-13.2,21.6s-14.1-7.8-22-4.4c-8.1,3.5-7.2,13.2-10.3,19.8-4.5,9.5-11.5,15.2-19.9,4.9-2.1-2.6-3.3-9.5-7.1-9.9s-6.5,6.1-8.2,8.8c-1.9,2.9-4.3,9.5-8.2,8.3-2.7-.8-5.7-9.7-7-12.1-4.1-7.9-6.2-16.2-13.8-21.6-7.9-5.6-15.9-10.2-23.9-15.8-3.4-2.4-11.8-5.2-6.9,1.5,2.9,4.1,11.4,4.6,15.4,7.3s5.4,6.1,7.8,10.4c2.5,4.6,5.8,7.8,9.2,11.5,3.7,4.1,7.9,7.9,9.9,13.2,1.8,4.8-.5,11.8,2.3,15.9,11.4,1.3,17.6-19.4,29.7-9.8,4.5,3.5,5.9,7,13.1,5.5,5.3-1.1,8.4-5.2,11-9.8,2.8-5,2.8-10.9,5.9-15.5,1.9-2.8,9.7-7.2,13.3-4.4s-.8,12.2-2.2,15.6c-2.7,6.4-8.1,10.8-10.8,16.9-4.8,10.6,8.4,13.1,4.2,23.6-6.9,1.8-8.1-6.9-15.2-5.9-6.3.8-11.4,5.2-14.9,10.4-1.7,2.5-2.2,6.8-6.6,5.4-1.6-.5-2.7-7.8-5.9-4.9-5.3,4.9,4.1,12.4,9,12.1,7-.4,9-8.6,14.5-11.5,4.9-2.6,8-1,12.7,0,4.2.9,12.5.1,11.6,7.2-.3,2-3.2,3.7-4,5.4a27.91,27.91,0,0,0-1.5,7.2c-1,10.4,0,21.4,0,31.8s-6,17.7,5,24.1c5.5,3.2,5.6,4.7,8.7,10,2.4,4.1,6.3,5.4,3.9,11.5-3.1,7.9-9,15.3-11.1,23.7-3.2-3.9-4.6-8.8-9.2-12.6a80.61,80.61,0,0,0-6.6-5.3c-1.8-1.2-5.3-1.9-6.6-3-4.2-3.7-.1-8.8-3.3-13.1-1.7-2.3-6.1-2.1-7.1-4.4a2.77,2.77,0,0,1-.1-1.3c.4-1.7,1.8-4.1,1.6-5.8-1.8-16-15.4,2.6-18.7,5.9-5.9,5.9-18,7.8-25.9,10.4-10.1,3.3-18.8,3.2-26.1-5-3.8-4.3-9.5-18.6-17.2-16.4-4,1.1-4.9,7.9-8.4,9.9s-11.7.8-15.7.5c-6.3-.3-27.5-8.7-32.4-2.8a3.15,3.15,0,0,0-.8,1.8H.4L-.3,0Z" transform="translate(0.3)"/><path id="path108" class="cls-2" d="M172.2,1497.8c6.7,8.8-3,16.3-7.3,23.8-5,8.6-4.7,20.1-7,29.8a123.8,123.8,0,0,0-3.2,25.7c-.1,7.3,4.6,14.7,2.7,22-.5,1.8-1.5,4.6-3.9,4.9-3.6.5-2.8-3.2-5.5-4.4-8.4-3.9-5,6.4-4.4,10.4a129.52,129.52,0,0,1,1.6,15.4c.9,17.3-18.6,41.2-36.3,27.5-8.4-6.6-11.5-14-24.2-12.1-9.4,1.4-18.5,13.6-25.3,20-8.4,7.7-16,13.4-27.5,15.6-3.8.7-8.6,1.1-12.1,2.5-4.7,1.8-6.3,6.3-7.7,10.7-.5,1.4-1.8,9-4.1,7.3-1.8-1.3-2-6.9-2.1-8.9-.3-4.6.5-8.7,1.2-13.3.4-2.8-.1-6.3.9-9,.8-2.1,3.4-5.2,5.5-3.4,1.8,1.5,2.9,2.5,5.4,2,2.2-.4,3.1-1.3,4.6-2.7,3.2-3.1,7.8-4,10.4-7.8,1.5-2.1,3.4-6.2,1.7-8.7-1.8-2.8-5.7-3.6-7.6-6.6-1.6-2.5-1.2-5.4,2.4-5.4,3.4.1,5.6,2.1,8.2,4.1,3.2,2.3,6.4,4.5,9.5,7.1,1,.9,5.2,4.4,6,2.2.5-1.4-1.6-3.4-2.5-4.3-3.1-3.4-7.7-6.4-11.8-8.7s-10-8-14-2.9a9,9,0,0,0-1.7,7.6c.5,2.6,1.3,3.6,3.5,4.7,1.9.9,4.2,1.1,4.4,3.2a9.21,9.21,0,0,1-1.4,5.6c-1.3,1.7-3.4,3.1-4.9,4.5-2.1,1.9-5.4,6-8.7,4.6-1.4-.5-2-2.7-3.5-3.2-5.4-1.9-7.2,5.9-7.7,9.4a58.5,58.5,0,0,0-.9,8.3c0,3.4-1.4,6.5-1.6,9.9,0,.5-.1.9-.1,1.4H-.2V1458.1H5.5c0,3,7.7,4.1,10.1,4.8,4.9,1.4,9.8,3.3,14.8,4.6a34.51,34.51,0,0,0,16.9.1c6.1-1.5,10.9-6.3,17.7-5.1,5.5,1,7.5,4.1,10,8.2,3.3,5.4,5,7.1,12,7.8,13,1.3,26.1-1.2,38.6-5,7.3-2.2,10.7-4.7,11.9-12.1.5-3.5,2-11,7.7-6.7,1.4,1.1,1.7,2.8,1.6,4.8-.2,2.2-.9,4.5-1.1,6.1-.5,5.1,1.4,10.4-.2,15.3a9.72,9.72,0,0,0,1.3,9.3c.5.7,1.4,3.5,2.3,3.5,1.5-.1.3-2.9,0-3.6-1.7-3.1-1.4-7.1-1.2-10.6.1-1.7,0-3.8.7-5.3a2.81,2.81,0,0,1,4.4-.8,9.57,9.57,0,0,1,2.7,4.8c.5,1.9-.7,4,0,5.9.9,2.4,2.8,3.8,5,5.4C164.4,1491.8,169.3,1494,172.2,1497.8Z" transform="translate(0.3)"/><path id="path110" class="cls-2" d="M17.8,1808.5c2.5,4.1,6.7,4.8,5.5,10.9-1.1,5.4-5,10.1-8.4,14.1-4.6,5.6-9.6,12.3-15.1,17.6v-91.7H2.9a4.94,4.94,0,0,0,1.8,3.9c3.5,3.4,7.2.4,8.8,6.6C16.5,1781.8,11.1,1797.4,17.8,1808.5Z" transform="translate(0.3)"/><path id="path112" class="cls-2" d="M11.2,1711.7c.6,1.8-.5,4.3-.6,6.1-.4,7.4-.7,14.7-1.1,22-.3,6.5.5,8.5-3.3,13.2-2.1,2.6-2.9,1-3.3,4.9a9.15,9.15,0,0,0-.1,1.6H-.3v-73.1H3.1a28.15,28.15,0,0,0,1.2,7.7c1.1,3.8,1.4,7.8,2.3,11.6C7.3,1708.4,10.4,1709.3,11.2,1711.7Z" transform="translate(0.3)"/></g><g id="NY"><path id="path6" class="cls-2" d="M1999.7,1535v31.3h-1.3a62.83,62.83,0,0,1-13.7-1.9c-6-1.4-12.9-1.7-19.1-1.8-5.5-.1-10.6-1.6-16.1-2.1-6-.4-12.2-.2-18.1-.5-9.7-.5-20.4-1.1-29.1-5.6-2.9-1.5-4.3-2.5-7.7-1.6-3.7,1.1-7.4,2.2-11.2,3.3-7.2,2.1-12.3.9-18.8-3-8.2-4.9-19.1-3.1-28.4-3.1-5.3,0-10.1.1-15.2,1.6-5.5,1.7-10.6,4.5-16,6.7-3.1,1.2-6,2-8.3,4.4-2.1,2.2-2.1,4-5,2.1-1.4-.9-4.9-3.2-5.5-4.6-1.4-3,2.1-4.7,3.8-6.3,2.3-2.2,3.3-5.1,5-7.6,1.9-2.7,4.8-4.8,7.4-6.9a24,24,0,0,0,4.6-4.4c.6-.7,1.1-2.1,2-2.5,2.8-1,5.5,2.8,8.6,2.3,3.3-.5,6.6-3.8,8.6-6.2,2.9-3.4,3.2-8.1,8.3-9,3.7-.6,7.4.6,10.7,1.6a38.75,38.75,0,0,0,4.9,1.1,38.88,38.88,0,0,1,4.7.9c8,1.6,16.1,2.5,24,4.3,13.9,3.1,28.4,5,42.5,6.9,16.4,2.2,33.4,1.1,50,1.1,9.2,0,18.2-.2,27.2-.8l1.2.3Z" transform="translate(0.3)"/><path id="path8" class="cls-2" d="M1999.7,1473.1v49.3c-8.8.1-16.9,3.8-25.9,2.5-2.8-.4-4.5-1.7-7.1-2.9-3.7-1.7-7.8-3.3-11.6-4.8-8.9-3.6-19.7-3.8-29.1-2.9a65.16,65.16,0,0,1-16.5-1c-3.5-.6-7-.2-10.5-.4a65.8,65.8,0,0,1-10.8-1.8c-5.9-1.5-11.5-3-15.5-7.8-1.9-2.3-3.5-4.6-3.7-7.5a40.53,40.53,0,0,1,.4-7c.5-4.6.7-10.4,3.5-14.1,2.4-3.3,4.6-6.1,7.9-8.4l8.4-5.7c3.5-2.4,13.2-9.8,10.8-15.4-1-2.4-4,.7-5.9,1.4-2.3.9-4.8.4-7.1,1.4-3.1,1.4-5.5,4.9-7.5,7.6a46.92,46.92,0,0,1-8.7,9.1c-3,2.4-7.1,5.4-8.7,8.9a29,29,0,0,0-2.5,12.6,43.88,43.88,0,0,0,1.5,12c1.1,4,2.8,6.8,2.2,11.1-.7,6-6.8,10.6-12.8,8.6-5.5-1.9-7.1-8.4-11.3-11.9-2.3-1.9-5.4-3-8-4.7-.3-.2-.5-.4-.8-.6l15.3.8-.2-44c-.2-.1-1.6-.1-2.2-.3a9.24,9.24,0,0,1-2.2-1.7,25.26,25.26,0,0,1-3.6-3.7,114.17,114.17,0,0,1-7.8-10.5c-2.9-4.4-4.9-9.9-7-14.7-1.9-4.3-4.5-8.9-8.3-11.7-2-1.4-5.2.5-7,1.6-2.2,1.4-5,2.4-7,4-1.1.8-1.9,1.7-3,2.5-2.9,1.9-6.1,3.6-9,5.3-3.6,2-4-.9-6-3.4-1.1-1.4-2.9-3.8-4.7-4.2v-.1c1.4-.5,2.7-1,4-1.6,3.8-1.6,10-5.3,9.4-10.2-.3-2.6-1.6-10.9-5.8-8s-4.8,9.6-10.8,10.1c-5,.4-11.5-.2-15.7-2.8-3.5-2.2-9.5-3.1-11.4-7a5.61,5.61,0,0,1-.6-3.7,8.13,8.13,0,0,1,1.4-3c.8-1.2,1.5-3.1,2.4-4.2,1.2-1.4,2.9-1.7,3.6-3.7.6-1.7-.9-11.2,3.5-7,1.4,1.3,1.3,3.4,2.9,4.8,1.8,1.5,3.3,1.4,4.8-.4a135.09,135.09,0,0,0,9.4-11.8c2.8-4.2,5-8.8,10.6-9.3,4.4-.4,10.3.9,13.6-2.7,1.6-1.8,2.2-4.4,3.5-6.3a19.6,19.6,0,0,1,7.6-5.4c4.6-1.7,8.5.9,10.9,4.8,2,3.2-.5,7.2,1.3,10.5,3.8.5,3-7.8,2.5-9.8s-1.7-2.9-3.1-4.2c-.9-.8-3-2.3-2.7-3.7.6-3.3,8.1-1.8,10.3-2.4,2.6-.7,9.9-8.3,6.4-10.8-1.9-1.3-3.3,1.3-3.8,2.6-.4,1.1.2,1.8-1,2.6-.9.5-2.3.3-3.3.3-1.9,0-5.8.7-7.2-1.1-.8-1-.6-2.6-1.1-3.8-.7-1.6-1.3-2.3-1.1-4.1a8.54,8.54,0,0,1,1.7-4.9c2.1-2.9,4.3-7.4,6.9-9.7,1.7-1.4,3.4-1.2,4.8.7,1.8,2.5-.2,2.7-1.4,4.9-.8,1.5-1.3,4.6-.2,5.9,1.3,1.6,4.3,1.9,6.2,1.9a16.61,16.61,0,0,0,5.1-.6c2.3-.8,2.4-2.2,2.5-4.7,0-.8.3-2.2,0-2.9-.4-1.1-.6-.7-1.3-1.4-1.8-1.9-1.4-1.6.7-3a3.85,3.85,0,0,0,1.2-5.2c-.9-1.6-2.3-1.8-4.1-2-2.8-.4-2.3-1-3.7-2.9-.9-1.3-3.1-2.1-4.5-2.9-.1-2.5,1.2-3.5,1.6-5.8.5-2.5.7-5,1.3-7.4.3-1,.4-1.8.6-2.4.3-.9.9-1.2,2.7-.5a53.15,53.15,0,0,0,5.6,2c8.7,2.6,6.8,13.1,13.6,17.6,2,1.4,7.3,3,6.4,6-.9,2.8-6.1,4.8-8.5,5.8-2,.8-9.2,4.5-4.5,5.8,1.6.4,3.1,0,4.5.8,1.7,1,2.7,2.8,3.6,4.5s6.6,12.9,6.8,6.4c.1-4.6-3.9-8-5.6-12.1-.9-2.1-1.1-3.2.6-4.6,1.2-.9,2.4-1.6,3.8-2.6,3.3-2.5,5.6-3,9.8-3.2,1.7,0,4.4-.5,6,0,1.8.6,2.2,2.4,2.9,4.1a21.89,21.89,0,0,0,3.5,5.6c1.2,1.6,2.6,5.9,5.2,5.5-1.2-6-6.1-11-7.6-16.6,3.9-2.3,7.5-4.8,11.4-7.2,2.3-1.5,13.9-6.5,13.1-9.5-4.6-.2-9.4,1.8-13.8,3.1-6,1.8-10.7,4.4-16,7.6-6.4,3.7-11.3,3.3-17.5-.5-4.7-2.9-7.1-8.3-9.8-12.9-3.3-5.6-8.5-11.2-10.2-17.5-1.8-6.8,5.4-6.7,10.2-8.2,7.1-2.3,14-5.4,20.9-8.4a81.82,81.82,0,0,1,12.6-4.4,11.25,11.25,0,0,1,6.3,0c3.4,1.3,6.7,2.4,10.1-.1a71.07,71.07,0,0,1,6.2-4.6c2.5-1.5,3.2-2.6,3.1-5.6-2.1.1-14.1,13.4-16.7,7.8-.8-1.6,1.1-4.3.2-6.3-1.8-3.9-6.3-.9-8.7.1-3.3,1.4-7,1.8-10.6,2.3-4.3.6-8.8-.1-13.1.1-7.6.3-15.8,1.6-22.5,5.6l-1.6-1.3c2.2-5,6.6-8.1,11.6-10.1,5.6-2.3,12-1.5,17.7-3.7,3.7-1.4,7-2.9,10.9-3.5,3.3-.5,5.4-.8,8-2.7,1.4-1.1,4.1-1.6,4.9-3.5.9-2.2-.7-3.1-1.6-4.9a21.11,21.11,0,0,1-1.5-8.6,30.1,30.1,0,0,1,0-5.2c.2-1.2.9-2.1,1.1-3.3.3-2.9-1.6-3.1-3.1-5.1s-1.6-4.4-3.5-6.2-3.3-4.8-4.4-7.2-2-5.2-.4-7.4c1.4-1.8,3-2.5,3.1-5.1.3-6.7-.8-2.1-2.3-5.1v-41.7l8-15-2.1-153.3-13.2-53.4,78.1-29,28.3-52.4-9.3-61.1L1810.8,631.8c3.9-2.7-3.7-5.7-5.1-6.7-2.9-2.1-2.2-4.5-4.9-7.4-2.3-2.5-6-3.6-7.8-6.5-1.8-2.7-2.2-7.3-2.9-10.4-1.2-5.7.3-11.6-.4-17.4-.7-5.6-2.9-10.8-3.7-16.4a78.48,78.48,0,0,1-.4-11.9c0-5.6,1.7-11.7-4.5-13.9-4.8-1.7-10.1-.7-13.7-5.5a48.62,48.62,0,0,1-5.1-9.5c-1-2.1-1.4-4.6-2.6-6.4s-3.1-2.9-4.4-4.7c-4-5.3-3.7-11.6-6.5-17.3s-6.8-10.5-1.8-16.4c5.3-6.3,10.5-12.8,18.5-15.3,7.4-2.3,14.2-2.4,18.6-9.5s7.6-13.8,6.5-22.4c-1.6-11.3-3.3-19.5-12-27.5-6-5.5-12.5-12.4-3.4-18,3.6-2.2,6.2-3.4,7.9-7.5,1.4-3.2,1.5-9.7,4-12,4.7-4.2,9.7,7.3,11.5,10.1,4,6.4,9.1,7.3,15,11.2a186.82,186.82,0,0,1,18.1,13.7c4.6,4.1,10.4,11.6,16.2,13.9,5.2,2.1,9.2-2.5,14.7,1.8,3.3,2.6,3.4,6.9,5.7,9.4,2.6,2.7,7.8,2.6,11.3,3.3,8.7,1.7,13.4,3.3,18.7,10.7,5.9,8.2,12.2,16.9,16.2,26.4,2.1,5.1,3.7,9.7,6.5,14.4a35.3,35.3,0,0,1,4.6,14.4c.4,4.2-1.4,6.5-2.6,10.2s-1.1,8.5-.7,12.5c1.1,11.1,4.6,22.1,8.8,32.4,1.4,3.6,4.1,8.3,7.8,10,2.9,1.4,8.4,1.6,6.5-3.3-1.1-3.1-5.5-2.2-4.6-6.6.8-3.7,4.1-2.6,3.6-7.8-3.7-2.8-8.8-3.3-9.8-8.3-1.2-5.6.4-12.1,1.7-17.3,1.5-5.9,8.4-49,15.7-45.4,3.6,1.8,2.2,6.1,7.8,5.4,4.2-.5,5-3.5,6.2-7,1.9-6.1,2.9-14.6,1-20.9-2.7-8.5-7.5-15.9-8-25.3-.7-12.9,6.6-22.7,12.5-32.9,4.2-7.2,3.6-10.8-1.2-18.2-2.7-4.1-6.4-11.8-12-10.6-1.5,6.7,4.9,11.4.9,18.9-2.4,4.5-10.7,10.1-15.9,9-13.1-2.6.1-30.1-18.1-24.7-7.7,2.3-10.3,6.2-19.2,5.8-2.7-.1-7.3.2-9.7-1-3.2-1.6-4.4-6.4-7.6-7.9-14.1-6.8-7.8,21.8-8.2,30.2-10,1.6-10.4-15.1-9.8-21.3,1.8-16.9.6-26.2-14-36-8.2-5.5-33-16.9-16.5-25.1,10.8-5.4,30.9-5.2,35.5-18.8,3.8-11.3-2-34.1-7.4-43.7-11.1-19.6,5.6-13.9,18.9-9.9,6.3,1.9,14.5,1.6,19.1-3.3,3.4-3.7,3.4-13.8,7.3-16.4,11.1-7.3,36.3,9.2,45.4,14,7.4,4,31.6,22.5,38.7,18h1.6V1381.8h-.5c-1.6,1.2-4,1.8-5.8,3.1-1.6,1.2-2.2,2.8-3.5,4.3-1.2,1.2-2.8,1.9-3.7,3.4-1.1,1.9-.3,3.9-.7,5.9-.4,2.4-1.2,4.8-1.6,7.3s-2.2,4.1-3.9,5.8-2.9,2.9-5.4,2a22,22,0,0,1-6.2-4.4c-3.9-3.9-.1-10,.4-14.6s-4.4-9.8-7.3-12.9c-3.9-4.3-9.5-1.3-14-3.6-1.5-.8-2.1-2.6-3.8-2.9-2.7-.5-1.6,1.6-2.2,3.1-.8,1.8-4,1.8-1.8,3.5,1.6,1.3,4.7.8,6.7,1.1,4.6.6,8.4,2.8,12.3,5,4.6,2.6,3.9,8.7,2.4,13.3-.6,1.8-1.4,3.7-1.8,5.4-.5,2.2.2,2.7,1.4,4.6a17.41,17.41,0,0,0,3,3.6c1.4,1.2,3.5,1.5,4.9,2.5,5.3,3.7-4.3,13.4-7.1,16.5-3.7,3.9-7.8,6.2-6.7,12.4.8,4.6,5,9.4,7.6,13.2,1.9,2.8,5.3,4.5,3.3,8.3s-7.2,5.2-11,6c-4.5,1-7.9,1.9-11.9,4.3-2.4,1.4-6.9,2.7-6.5,6.1,2.1.6,3.1-.6,4.9-1.4,2.3-1.2,4.9-1.3,7.4-2.2,4.6-1.8,8.3-3.2,13.2-3.6,5.1-.4,7.2-1.1,9.3-5.9,1.1-2.5,3.4-9.7,7-9.5,2,.1,3,2.8,5.1,3.3s4.1.2,6.2,1.2a21,21,0,0,1,5.4,4c1.3,1.3,3.5,1.7,4.5,2.9l.8.2Z" transform="translate(0.3)"/><path id="path18" class="cls-2" d="M1227.8,0h520.9a37,37,0,0,1-7.6,12.6c-2.5,2.5-5.9,4.6-7.8,7.7-2.1,3.4-2.8,7.8-4.9,11.1-1.4,2.3-6.3,6-6.7,8.6-.7,5.1,4.6,3.7,7.4,2.9,2.6-.7,7.8-3.1,8.3,1.6.3,3.4-4.5,6.3-5.5,9.4-2.7,8.4,3.4,11.9,10.3,12.9,4,.6,7.4.7,6.2,5.8-.8,3.5-3.8,4.7-5.6,7.5-4.4,6.8,1.1,12.7-8.7,14.4-12.6,2.2,2.2,8.6-5,12.7-3.1,1.7-6.6-.4-9.8,2.1-4.8,3.8-1.3,4.8.2,8.5,3,7.4-10.2,13-15.2,15.3-8.4,3.9-12.4-4.4-8.5-11.5,1.8-3.4,5-5.5,7-8.7a41.32,41.32,0,0,0,4-11c1.1-4.4.9-9.1,3.2-13.3,1.5-2.7,5.5-5.1,5.8-8.1-9.3-.5-13.4,5-14,13.9-.4,6.3-5.8,10.3-7.6,16-2.1,6.8-4.5,10.4-9.6,15.8-1.8,1.8-3.3,4.8-5.9,4.9-4,.2-2.8-3-2.9-6-2.1,2.3-10.2,9.2-10.3,12.2-.1,4.5,7.2,1.5,6.2,7-.7,4-4.9,2.8-7.4,5.3-3,2.9-1.6,7.7-3.3,11.1-1.5-.7-2.9-2.9-5-4.1-2.4-1.3-4.2-.8-3.8-4.9-1.5.6-2,2.2-3.2,2.9-1.9,1-2.5-.3-4,1.3l-.1-.1c-6.6-2.9-84.2-30.1-95.8-35.4-2.4-1.1-8.3-2.5-11-1.3-4.2,1.9,1.1,3.8,1.6,7.4-4.2.5-53.6-18.6-55.5-19.8-4.4-2.8-1.2-7.5-4.3-11.4-1.8-2.1-3.5-1.4-3.6-4.6s1.8-3,3-5.4c2.9-6.1-1.6-6.5-4.6-9.9-3.9-4.3,3.6-15.9-7-15.6-3.6.1-6.4,3.1-8.6-.9-.9-1.7.1-2.9-1.3-4.6a11.66,11.66,0,0,0-4.2-2.7c-4-1.6-5-2.2-7.8-5.5-3.5-4-4.9-3.5-5.7,1.5-.8,5.9-2,4.2-4.9.5-2-2.4-5.2-2.9-7.4-5.3,7.8-.9,10.1-12.8,1.2-9.7-9.5,3.3-1,9.8-6.5,15.2-2.6,2.6-6,1.1-7,5.5-.6,2.8,1.1,5.5-.4,8.2-1.6,3-4.9,3.2-6.3,6.1s-1.2,7-2.4,10.3C1398.7,79.9,1237.3,9,1226.8,6A34.1,34.1,0,0,0,1227.8,0Z" transform="translate(0.3)"/></g><g id="Airports"><path id="path14" class="cls-2" d="M1813.1,1287.8c.9,4.4,3.5,10.4,1.9,14.8-.9,2.5-2.7,4.8-4,7.1-.9,1.6-1.8,4.2-3.4,5.2-1.1.8-2.6.7-3.9.9a56,56,0,0,0-11.1,3.8c-7.1,3.1-13.6,7.2-20.5,10.6-6,3.1-12.3,6.6-17.5,10.9-2.4,2-4.6,4.2-7.1,6.1-2,1.6-4.8,3-5.1,5.7-.2,2.1,1.2,3.9,1.6,5.8a10.24,10.24,0,0,1-.4,6c-1.9,5.1-5.7,9.5-9.3,13.6-2.1,2.4-3.6,5-5.5,7.4a23.08,23.08,0,0,0-1.4,1.9,33.21,33.21,0,0,0-4,5.8,12.57,12.57,0,0,1-8.2,6c-3,.5-5.7-.4-4.2-3.7,1.3-2.9,4.1-4.7,6.1-7.1,3.2-3.9,3.6-6.8,3.6-11.7a20,20,0,0,1,.8-6.1c.9-2.6,3.3-4.8,3.9-7.4.8-3.9-4.1-7.6-6.7-9.6-3.7-2.7-7.4-4.9-11.1-7.7-9.9-7.6-21.1-13-31.9-19-21.1-11.6-41.2-25.2-62-37.5-6.6-3.9-13.7-6.9-20.2-11.3s-12.3-9.4-18.7-13.8a117,117,0,0,1-18.7-15.7c-7.4-7.6-11.6-20.1-11.5-30.8,0-6.5,2.1-10.4,5-15.9,1.3-2.5,2.4-5.2,4.6-7.2,1.6-1.6,3.9-2.4,3.3-5.1l.2-8.1a19,19,0,0,1,4.1.4c2.6.6,4.9,1.6,7.6,1.9,4.6.6,9.2-.4,13.6-.6,4.6-.2,3.2,2,4.8,5.3s5.1,4.8,8.4,5.4c5,1,5.2-5.4,5.5-8.8.6-6.1,1.3-9.9,7.5-12.1,2.6-.9,5.4-1.6,8-2.3a31.85,31.85,0,0,1,10.2-.9c5.2.2,10.5,1.9,15.7,2.5,5.5.7,10.8,1.9,16.3,2.5a75.37,75.37,0,0,1,27.5,8.1c4,2.2,7.9,4.5,11.7,7,3,1.9,5.7,4.6,8.9,6.2,3.5,1.7,7.6,2.2,11.2,3.8a32.92,32.92,0,0,1,10.6,6.9c2.1,2.3,4.1,5.7,6.7,7.2,3.7,2,8.2,1.9,12.2,2.8,3.4.8,5.6,2.9,8.5,4.8,3.4,2.2,6.9,4.3,10.2,6.8,3.1,2.4,6.7,4.2,9.1,7.5,2.1,2.9,2.9,6,5.5,8.5a19.94,19.94,0,0,1,3.7,5.4c.8,1.5,1.3,3.6,2.3,5.1h-1.6c.3,1.1,1.3,1.8,2,2.8a42.06,42.06,0,0,0,7.6,7.6c3,2.2,6.4,4,8.8,6.7C1808.1,1277,1811.8,1281.8,1813.1,1287.8Z" transform="translate(0.3)"/><path id="path20" class="cls-2" d="M1745.1,1382.3a9.87,9.87,0,0,1,.2,4.2c-.2,1.5-1,3-1.2,4.6-.2,1.4.3,2.7.3,4a9.28,9.28,0,0,1-.3,2.4,3.45,3.45,0,0,1-1.3,1.9c-1.3,1.2-2.3,2.6-3.7,3.7a4.93,4.93,0,0,1-4.6,1.3,30.08,30.08,0,0,0-4.3-1.1c-2-.3-3.9-.1-5.6-1.5a3.8,3.8,0,0,1-1.3-3.3c.3-1,1.6-2.1,2.2-2.9a14.43,14.43,0,0,0,2.3-3.2,21.15,21.15,0,0,1,1.6-3,10,10,0,0,1,1.4-1.5c1.6-1.4,3.3-2,4.5-3.8,1-1.4,1.8-3.2,3-4.4a4.55,4.55,0,0,1,4.3-1.3C1744.6,1379.1,1744.7,1380.8,1745.1,1382.3Z" transform="translate(0.3)"/><path id="path40" class="cls-2" d="M1557.6,1182.2l-.2,8.1c-3.7.3-5.9.8-7.7,4.4a102.11,102.11,0,0,0-6.3,13.9,45.75,45.75,0,0,0,1.6,29.9c2,5,5.9,10.3,1.2,14.1-2.9,2.3-2.9-.1-3.9-2.3-.6-1.2.2-2.1-1.9-1.9-1.7.1-1.6,1.2-2.3,2.5-1.4,2.8-2.7,3.9-5.6,1.6a26.58,26.58,0,0,1-4.2-5.2c-.9-1.2-1.9-2.3-2.9-3.4l.5-.5c2.2-3.1,4.7-5.7,4.5-9.7-.2-7.4-3.7-14.8-5.5-22-1.1-4-2.1-8.1-3.5-12-1.5-4.1-3.7-8-5-12.2-1.4-4.4-2.9-8.7-2.6-13.4,3.1-.2,6,2,8.4,3.7a19.64,19.64,0,0,0,9.9,3.7c7.2,1.1,15,.4,22.3.4A31.6,31.6,0,0,0,1557.6,1182.2Z" transform="translate(0.3)"/><path id="path58" class="cls-2" d="M1430.6,695.4c.8,1.2,3.1,3.3,2.9,4.5-.4,2.4-2.4,1.6-3.6.8-2.4-1.5-3.9-6-6.7-8.1s-6-3-9.3-1.7c-2.5,1-8.2,4.4-9.9,6.5a7.31,7.31,0,0,0-1.6,3.6,21.41,21.41,0,0,1-2.8-3.2c-3.9-4.5-4.8-10.5-8.2-15.2-1.8-2.7-2.7-2.8-3.8,0-.9,2.2-.9,4.3-3.6,4.5-2.2.2-4.1-1.8-6-2.7-2.6-1.3-5.1-2.8-7.6-4.3s-3.9-3.1-7-2.7c-2.6.3-5,2.1-7.3,3.4-6.9,3.8-13.8,7.9-20.3,12.1a82.57,82.57,0,0,0-8.8,6.8c-2.1,1.7-5.4,4.2-8.2,2.6-2.2-1.3-2.5-5-3.3-7.2a81.8,81.8,0,0,1-2.7-8.8c-1.3-5.4-1.2-10.7-1.2-16.2a38,38,0,0,0,11.3-2.8c10.3-4.4-1.9-15.4,0-23.4,1.2-4.8,5.4-4.1,9.9-4.6,6.6-.7,12.4-1.5,18.5-4.1,9.9-4.2,17.4.4,26.1,4.9a177.12,177.12,0,0,1,18,10.2c4.8,3.3,8.7,7.6,13.3,11.2,5.9,4.6,23.1,8,18.4,17.6-2,4-5.4,3.1-2.4,7.5C1426.5,689.7,1428.6,692.4,1430.6,695.4Z" transform="translate(0.3)"/><path id="path76" class="cls-2" d="M1306.4,669.7l-.1.2-9.4,1.5c-2-2.2-14-14.2-14-14.2l10.8-10.7,8.1,10.5c-.3,2.8-1.1,6.9-.2,9A6.44,6.44,0,0,0,1306.4,669.7Z" transform="translate(0.3)"/></g><g id="Queens"><path id="path10" class="cls-3" d="M1968.6,764.1l9.3,61.1-28.3,52.4-78.1,29,13.2,53.4,2,153.3-8,15V1170c1.5,2.9,2.7-1.6,2.3,5.1-.1,2.6-1.7,3.3-3.1,5.1-1.7,2.2-.6,5.1.4,7.4a25.33,25.33,0,0,0,4.4,7.2c1.9,1.8,1.9,4.1,3.5,6.2s3.5,2.2,3.1,5.1c-.1,1.2-.8,2.1-1.1,3.3a30.1,30.1,0,0,0,0,5.2,21.11,21.11,0,0,0,1.5,8.6c.8,1.8,2.4,2.8,1.6,4.9-.8,1.8-3.5,2.4-4.9,3.5-2.6,1.9-4.8,2.1-8,2.7-4,.7-7.2,2.1-10.9,3.5-5.7,2.2-12.1,1.4-17.7,3.7-4.9,2-9.3,5.1-11.6,10.1l1.6,1.2a5.67,5.67,0,0,0-1.3.8c-6.3,4.2-5.4,13.2-5.4,20,0,4.1,0,8.5-1.4,12.3a12.63,12.63,0,0,1-4.4,5.9c-2.1,1.6-6.2,4.6-8.9,4.3-2.5-.3-2.3-4.6-2.7-6.8-1-5.5-1.3-10-5.6-14.2-2.1-2-4.5-3.5-6.6-5.6-2.3-2.3-4.6-4.8-6.7-7.2-3-3.4-5.2-6.6-9.5-7-1-1.4-1.5-3.6-2.3-5.1a21.62,21.62,0,0,0-3.7-5.4c-2.5-2.5-3.4-5.7-5.5-8.5-2.4-3.3-6-5-9.1-7.5s-6.8-4.5-10.2-6.8c-2.8-1.9-5.1-4-8.5-4.8-4-.9-8.5-.8-12.2-2.8-2.6-1.5-4.6-4.9-6.7-7.2a32.35,32.35,0,0,0-10.6-6.9c-3.7-1.6-7.8-2.1-11.2-3.8-3.2-1.6-5.9-4.3-8.9-6.2-3.8-2.4-7.7-4.8-11.7-7-8.1-4.4-18.3-7.1-27.5-8.1-5.4-.6-10.8-1.8-16.2-2.5-5.2-.6-10.5-2.3-15.7-2.5a29.25,29.25,0,0,0-10.2.9c-2.6.8-5.5,1.4-8,2.3-6.2,2.3-6.9,6-7.5,12.1-.3,3.4-.5,9.8-5.5,8.8-3.3-.6-6.8-2.2-8.4-5.4s-.2-5.5-4.8-5.3c-4.4.2-9.1,1.2-13.6.6-2.6-.3-5-1.4-7.6-1.9a19,19,0,0,0-4.1-.4c-1.1-.1-2.2,0-3.4,0-7.3,0-15,.7-22.3-.4a19.64,19.64,0,0,1-9.9-3.7c-2.4-1.8-5.3-4-8.4-3.7-.2,4.7,1.2,8.9,2.6,13.4,1.3,4.2,3.5,8.1,5,12.2,1.4,3.9,2.4,8,3.5,12,1.8,7.1,5.3,14.6,5.5,22,.2,4.1-2.3,6.7-4.5,9.7l-.5.5c-2-2.1-4.1-4-5-7-1.5-4.7-3.5-9.1-5.2-13.6-1.9-4.9.3-11.4-1.9-15.9-1.8-3.8-3.2.8-3.3,3.2-.2,3.3.7,6.1,1.4,9.1,1.8,7,4.8,13.2,4.4,20.7-.4,7.2-5.2,3.5-9.3,7.4-4.5,4.3,6.4,5.3,9,2.7,1.4-1.4,3.1-5.7,4.4-1.1a3.53,3.53,0,0,1-2.5,4.7c-1,.3-2.3.1-3.3.3s-1.9.9-2.8,1.1a10.59,10.59,0,0,1-6.8-1c-4.1-2.4-4.5-8.2-5.3-12.7-.9-4.9-1.1-9.6-2.4-14.3-1.3-4.3-2.1-8.6-4.4-12.7-1.2-2.2-2.4-3.5-2.5-6.1a63.63,63.63,0,0,1,.1-10.7c.2-2.4,1.4-5.2,1.1-7.6-.5-3.2-3.1-3-4.1,0-.9,2.6-.2,6.4.3,9,.9,4.9,1.6,10,2.3,15a258.6,258.6,0,0,0,5.6,28.9c1.2,4.7,1.3,9.4,2.3,14a15.09,15.09,0,0,1-.3,7c-.6,2.2-1.1,2.1-2.8,3.8a13.49,13.49,0,0,0-2.7,4.8c-.7,1.7-.7,3.4-2.8,3.6-1.7.1-2.5-1.4-3.5-2.5-2-2.3-3.6-5.1-7-5.1-3.7-.1-7.6,1.8-11,3.1-4.9,1.8-9.2,5.7-13.9,1.3-3.7-3.5-8-7.9-10.4-12.4-3.2-5.8.9-8.8,5.7-11.5,2.9-1.7,4.4-2.8,3.5-6.4-.7-2.8-2.1-4.3-4.9-2.8-2,1.1-3,3.9-4.7,5.2-2.1,1.7-3.6.8-5.8-.5-4.2-2.4-5.1-6-7.9-9.6-4.6-6.1-12.8-16-21.1-17.3-1-2.6.8-5.6-2.4-7.3-1-.5-4.3-1.1-4.7-2.2-.5-1.4,2.1-2.8,3.1-3.2,1.8-.8,4.1-.7,5.9-1.6,1.6-.9,2.6-2.7,4.1-3.8s2.8-1.9,4.6-1.6,2.3.9,4.1.2c4.1-1.7,2.7-6.5-.2-8.6-1.7-1.3-4.5-1.9-3.8-4.5a9.36,9.36,0,0,1,3.4-3.7c1.9-.5,2.3,1.9,4.1,2.4,1.5.5,5.1-.3,6.1-1.6,2.1-3-3-9.8-3.4-13.1-.2-2.2-.1-4.4-.8-6.5-.7-1.9-1.8-3.6-2.6-5.3a16.11,16.11,0,0,1-1.9-6.1c0-2.2,1-4,.9-6.4-.1-1.8-.6-4.7-2.8-3.4-1.4.8-2.1,3.4-3.2,4.6-3.1,3.7-4.2-1.8-4.4-4.2-.3-3.8-.9-8.3-2.4-11.8a20.87,20.87,0,0,1-2-8.6c-.2-3.9,0-10.8-4.4-12.6-2.1-.9-2.6-.2-2.7-3.1,0-1.9.4-4.1-.5-5.8-1.2-2.3-2.8-1.6-4.9-1.8-1.5-.1-1.4.1-2.2-.9a9.16,9.16,0,0,1-.9-3.7c-.6-4.7-.9-9.2-2.2-13.7-1.5-5.2-1.8-10.5-2.9-15.7-.9-4.4-2.9-8.7-3.5-13.2a71.87,71.87,0,0,1-.3-10.4c0-3,.3-6.3-3.5-6.4-2.5-.1-5.5,1.9-7.9,2.6-4.6,1.5-9.9,2.5-14.1,5.2a55.84,55.84,0,0,0-9.8,7.6c-3.7,3.9-6.2,8.4-10.5,11.6a70.08,70.08,0,0,0-6.2,4.5,48.77,48.77,0,0,1-7.5,6.1c-2.9,1.9-6,3.8-8.2,6.5-1.9,2.2-2.3,4.4-5.3,5.6a32.92,32.92,0,0,0-6.1,2.6c-1.4.9-2.9,4.1-4.2,4.6s-1.6-.8-2.2-1.9a48.46,48.46,0,0,1-3.3-8.2c-1.4.2-1.6,2.1-2.4,3.1s-2.1,1.6-2.7,2.9c-.9,2.1-.7,8-4.3,7.6-1.1-1.8-1.9-3.7-3.1-5.5-1.5-2.3-3.8-3.8-5.4-5.9a20.21,20.21,0,0,1-3-6.5c-.2-.9.2-1.9-.4-2.7s-2.2-1-3.1-1.6c-1.8-1.2-1.8-2-.3-3.8s1.5-1.8.9-4.1-1.2-2.6-3.1-4.1c-1.4-1.1-3.1-3.2-1.4-4.9s3.8-.7,1.2-3.2a20.54,20.54,0,0,0-4.2-3.6c-1.9-1.1-3.8-2-5.7-3.1-2.4-1.4-5.1-1.8-7.5-3.1-1.1-4.9,10-5.9,6.3-9.6-3.5-3.6-8.6-5.6-12.2-9.1-2-1.9-3.3-4.1-6-5.1-1.9-.8-8.8-1.3-9.6-3.5-.3-1.1,2.3-2.4,3.3-3.2,1.3-1.1,4.3-1.6,4.4-3.3,0-.8-1.7-3.1-2.5-3.7-1.4-1-3.6-.6-5.2-.9s-5.5-1.8-3.3-3.8c1.4-1.3,7.9-.6,7-4-4-.2-5,.6-7.6-2.9a39.47,39.47,0,0,0-4.8-6c-1.3-1.2-3-3.4-4.5-4.1-2-1-4.1-.2-6-1.9-1.3-1.1-2.5-2.2-3.9-3.2-3.1-2.3-5.8-4.8-9.2-6.8-2.3-1.3-3.4-2.7-.6-3.9,1.4-.6,5.1-.7,4.8-2.8-.3-1.6-3.2-2.1-3.7-3.7-.6-1.8.5-4.1-.4-5.8s-2.9-2.6-4.2-3.8c-1.6-1.5-2.1-3.4-3.5-5-1.2-1.4-3.4-1.6-4.5-3.1a5.15,5.15,0,0,1,0-5.1c1.5-2.1,5.1-1.3,6.7-3.5a3.83,3.83,0,0,0-.9-5.3c-1.9-1.3-3.4-.9-3-4,.3-2.1.6-3.4,0-5.6-.3-1.2-.6-2.4-1-3.6-2.5-9.4-5.2-19.6-11.3-27.4a21.43,21.43,0,0,0-11.1-7.9c-2.7-.8-5.4-.7-8.1-1.2-3.6-.6-6.9-2.1-10.3-3.5-2.7-1.1-4.8-2-6.7-4.4-3.9-4.9-6.7-10.8-9.9-16.2-1.9-3.1-3.5-7.2-6.4-9.7a62.68,62.68,0,0,0-8.7-5.8c-7.1-4-14.2-9.2-21.8-12.1-9-3.4-17.8-.1-25.4,5.1-3.5,2.4-6.7,3.4-10.5,4.9-2.5,1-6.2,3.9-9.1,4.1,0-5.6.4-11.1.8-16,.9-10.3,6.7-21.3,12.4-29.9,3-4.5,7.5-7.4,10.9-11.5,4-4.9,7.1-11.2,10.1-16.8,2.9-5.3,6.4-10.5,9.5-15.6,2.3-3.8,2.8-8.6,5.4-12.2,3.1-4.2,6.9-7.6,9.7-12.3,5.9-9.8,10.2-21,18.5-29,4-3.9,30.1-10.8,20.4-18.1-5.1-3.9-11.3-6.1-11-12.3a11.79,11.79,0,0,1,1.1-4.4c1.1-2.8,4.3-4.6,6.1-7.1,2.8-3.9,1.1-6.5,2.1-10.7,2.4-10.5,12,2.5,14.7,5.4,5.9,6.6,12.5-1.3,17.4-4.6.7-.5,1.4-1,2.2-1.5,11.2-7.1,24.4-12.9,30.8-24.5,1.9-3.4,2.3-7.5,4.3-10.7,1.8-3,5-4.9,8.1-6.5a29.7,29.7,0,0,0,7.9-6.2c1.9-2.2,3.1-6,5.1-7.9,4-3.7,10.5.9,14.3,4.1,4.8,4.1,5.6,9.2,9.5,13.6,1.7,1.9,4.5,3.8,5.9.4,1.2-3.1-1.8-3.4-3-5.7-3.4-6.4,3.8-6.7,7.8-4.3,4.4,2.5,8.5,5.4,13.1,7.8s8.6,5.2,5.3,10.8c-4.1,7.2-15.1,5.5-21.4,9.4-4.4,2.7-12.9,16-7.4,20.7,3.4,2.9,5.9-1.6,6.5-4.9.8-4.5,0-5.8,4.2-8.1,6.5-3.6,14.3-8.4,20.1-2.2,3.1,3.2,5.4,5.7,9.1,8.2,2.9,1.9,9,4.5,7,9.2-1.4,3.5-3.5,2.3-3.7,7,0,.4-.1.8-.1,1.3l-8.1-10.5L1283,657.4s12,12,14,14.2l9.4-1.5.1-.2a15.74,15.74,0,0,0,4.9.4c0,5.5-.1,10.8,1.2,16.2a69.13,69.13,0,0,0,2.8,8.8c.8,2.2,1.1,5.9,3.3,7.2,2.8,1.6,6.1-.9,8.2-2.6,2.9-2.4,5.7-4.7,8.8-6.8,6.6-4.2,13.5-8.3,20.3-12.1,2.3-1.3,4.7-3,7.3-3.4,3.1-.4,4.5,1.2,7,2.7s4.9,3,7.6,4.3c1.9.9,3.8,2.9,6,2.7,2.7-.2,2.7-2.3,3.6-4.5,1.1-2.8,1.9-2.7,3.8,0,3.4,4.8,4.4,10.7,8.2,15.2.9,1,1.8,2.3,2.8,3.2-1.3,8.1,10.9,18,15.7,22,8.2,6.7,20.4,16.9,30.9,9.6,7.3-5.1,16-7.5,23.3-12.6,2.5-1.8,9.5-8.2,8.3-11.8-.9-2.9-4.2-1.8-6.5-2.3-4.6-1.2-8.8-4.6-13-6.8-4.8-2.4-7.2-4.8-9.2-9.5-1.4-3.2-4.2-9.7-4.2-13.2,0-3.3,1.6-3.1,3.4-5.3,1.3-1.6,1.7-3.6,2.7-5.4,2.1-4,6.3-8.7,3.9-13.6-1.3-2.7-5.1-3.2-6.6-6-3.5-6.5,7.6-15.7-4.4-17.5-5.5-.8-9.5,3-14.4,2.1-4.1-.7-7.4-4.4-10.3-7.1-2.6-2.5-6-6-4.2-10.2,1.5-3.6,6.5-3.3,9.5-4.6,3.5-1.5,7-4.3,10.3-6.2,3-1.7,5.2-3.3,4.9-7.3-.5-7.2-11-9.9-7.8-18.9,1.3-3.5,4.4-5.4,8.3-3.5,4.4,2.2,4.5,5.2,10.3,4.6a27.94,27.94,0,0,0,9.1-2.5c3.1-1.7,4.4-5.2,7-7.5,2.5,1.7,1.5,5.4,5.3,4.9,2.7-.4,3.7-3.7,4.5-5.8,2-5,5.1-11.5,10.9-5.3,2.4,2.5,1.7,6,3.1,8.8,1.4,2.6,4.2,3.9,5.5,6.5s2,5.6-.3,7.8c-2.2,2-5-.2-4.8,4.2.2,2.7,4,6.1,5.4,8.4,2.4,3.9,4.2,6.9,9.1,4.1,3.8-2.3,4-6.7,5.7-10.1s5.8-5.5,8.8-8.2c2.7-2.5,6.4-5.1,5.4-9.4s-5.3-3.1-6.7-6.6c-1.9-4.6,2.9-4.4,5.4-5.8,2.3-1.3,4.4-6,7.4-5.7,1,5.4,7.1.3,9.2-1.6,5.2-4.8,8.6-11.9,16.1-8.8,4.2,1.7,8.5,5.2,11.8,8.3,2.6,2.4,4,8.3,7.5,8.2,4.1-.1,2.8-6.3,7.4-4.4,3.2,1.3,2.6,5.5,5.2,7.4,4.8,3.4,4.6-1.5,7.9-2.6,4.3-1.4,4.4,4.6,4.2,7.4,4.4.9,4.6-1.9,7-4.7,3.1-3.7,6.6-2.9,11-1.9,5,1.1,9,4.8,13.9,6.3,4.5,1.4,8.9-.5,11.8,4.4,2.5,4.2-.6,3.8-1.8,7.5-2.4,7.6,6.9,9,12,9.9,12.3,2.2,37.7,7.5,38.7-11.6.3-6.1-2.8-4.4-5.8-7.4-2.5-2.5-.4-6.5,2.8-8.4,5.6-3.3,17.8-1.6,21.9,3.9,2.8,3.8,4.7,8.4,7.6,12.2a44.65,44.65,0,0,1,8.1,15.4c1.1,3.5,2.2,7.6-.9,10.3-1.6,1.4-8.3,1.6-7.9,4.6.2,1.2,4.9,3.1,5.9,4.1,2.6,2.5,4.3,6.1,5.7,9.3,4.9,10.9,7.3,22.2,11.5,33.1,3.8,9.4,10.7,16.8,17.1,24.5,5.1,6.1,10,12.6,16.3,17.5,3.8,2.9,6.9,4.7,8.2-1.1a20.46,20.46,0,0,0,.1-7.4c-.6-2.5-1.2-1.9-2.5-3.7-2.3-3.1-2.6-6.2,1.3-9.1,3.7-2.8,6.2-.6,5.4-6.3-.6-4.3-3.2-6.5-5.1-10.3s-1.2-6.1.4-9.8c2.7-6.2,2.8-14.7,7.3-20.3,7.9-9.6,11.8,5.7,17.8,1.8a.1.1,0,0,0,.1-.1Z" transform="translate(0.3)"/><path id="path12" class="cls-3" d="M1845.9,1457.5l.2,44-15.3-.8c-2.1-1.7-4.4-4.2-6.9-4.1-3.4.2-7.4,3.4-10.3,5-3.5,1.8-6.7,4.8-9.9,7.1-7.1,5.1-14.6,10.3-23.2,12.4-3.4.8-7.2.4-10.8.4-3.9,0-7.9.2-11.8,0a47.93,47.93,0,0,1-20.6-5.5c-6.9-3.7-16.6,1.3-23.4,2.8-5.8,1.2-11.4,2.2-17.1,3.9-4.5,1.4-9.8,1.7-13.8,3.8-4.2,2.2-8.6,3.3-13.2,4.6s-9.2,3.2-14,4c-6.8,1.2-13.3,3.4-20.2,4.5-8.7,1.4-16.2,6.2-24.7,8.2-9.4,2.3-18.6,5.1-27.8,7.9-6.9,2.1-14,3.5-20.9,5.9-7.8,2.7-15.6,5.7-23.5,8.2-4.6,1.4-9.3,2.6-14,3.9a72.61,72.61,0,0,0-13.9,5.7c-6.6,3.4-13.3,6.7-19.9,10.1-13,6.6-25.9,13.2-38.6,20.4-8.2,4.7-16.1,9.4-24.7,13.2-4.9,2.2-11.2,3.5-15,7.5-1.2,1.2-1.6,2.5-3.3,2.2-1.9-.3-1.5-2-2.7-2.7-1.4-.9-3.7.4-5,.9-6.3,2.4-11.8,7-17.6,10.3-13.1,7.3-27.3,13.7-41.9,17.2-9.8,2.4-19.4,5.5-29.1,8.2a110.71,110.71,0,0,0-22.1,8.8c-2.4,1.3-5,2.1-7.4,3.3-1.6.7-3.1,2.4-4.8,2.8-5.1,1.5-5.2-6.7-9.3-5.8-2.8.6-5.6,2.7-8.5,3.5-11.7,3.5-23.9,5.2-35.6,8.2-7.1,1.8-14.4,1.9-21.4,4.1a155.34,155.34,0,0,0-20,7.6c-6.3,2.9-13,5.7-19.5,8-4.2,1.4-9.1,2.1-12.8,4.7-2,1.4-3.9,4.1-6.7,2.6-1.5-.8-3-3.9-3.7-5.4-2.3-4.6-4.9-10.1-4.9-15.2,0-9.3-1.9-25.1,9.2-28.8a111.12,111.12,0,0,1,18.9-4.7c6.5-1,11.3-3.9,16.9-6.9,1.4-.8,3.4-2.3,4.9-2.1,1.7.2,2.3,1.8,4.3,1.9s3.7-2,5.4-1.6c1,.2,1.1,1.2,2.1,1.7.8.4,2.1.1,3,0,5.5-.9,10.2-4.6,15-7.1,3.6-1.8,7-4.1,10.4-6.2,2.7-1.7,5.2-4.2,8.5-3,4.4,1.6,7.8,5.1,12,7.2,3.7,1.8,9.8,2.1,13.4.2,1.6-.9,1.9-1.8,4-2,2.5-.2,3.7,1.3,5.9,1.7,3.8.7,9-3.3,11.3-5.8,3.2-3.4,5.5-7.4,8.8-10.7,2.7-2.8,5.7-8.6,10-7.4s6.6,6.5,11.5,5.8c3.7-.5,6.8-3.3,9.9-5.2,1.9-1.2,3.3-2.6,4.8-.2,1,1.7.6,5.4,3.5,3.7,1.9-1.1,2.5-3.3,4.9-4.1s3.4-.2,5.1,1c4.1,2.9,10.6-.1,14.8-2.1,3.8-1.8,7.6-3.8,11.2-5.9,5.2-3.1,10.2-6.1,15.2-9.5,13.8-9.3,27.3-19.1,40.9-28.5,4.9-3.4,10-6.7,14.5-10.6,3.5-3,7.6-6.2,11.9-7.6,6.4-2.1,11.2,2.6,17.1,3.5s11.4-.1,17.2-.8a60.76,60.76,0,0,0,16.7-4c5.6-2.3,11.3-4.3,16.8-7s11-5.8,17.1-7.5c4.3-1.3,8.3-2.3,12-4.8,1.7-1.2,4.1-2.2,6-1.2,1.5.8.4,1.9,2.2,1.1.5-.2,1.3-1.4,1.7-1.8,3.9-3.6,8.7-6.7,13-9.8,2.7-1.9,5.4-3.8,8.2-5.5,2.2-1.3,5.1-2.3,7.2-3.8,3.4-2.5,4.6-7.1,8.7-8.8,4.6-2,7.8,2.1,11.3,4.6,1.5,1,2.7,2.3,4.3,3.2,2.1,1.2,4.4,1.1,2.6-1.6-.9-1.4-2.8-2.6-4.2-3.5-1.9-1.3-5.4-2.2-6.9-4-2.5-3,.2-9.1,3.5-10.3,4.3-1.6,6.7.7,8.3,4.5,1.1,2.6,4.5,10.5,7.9,9.7.4-2.2-1.8-5.5-2.9-7.4-1.6-2.8-3.5-5.3-4.9-8.1-2.6-4.9-2-9.7-.6-14.9,1.3-4.6,7.5-3.7,11.1-2.8,2.3.7,4.3,1.7,6.6,2.1a46.42,46.42,0,0,0,9.1.6,16,16,0,0,0,7.7-1.9,72.52,72.52,0,0,0,9.5-5.1c4.7-3.3,9.9-6.2,12.2-11.7.8-1.9.4-4.3,2.7-5s4.7,1.9,5.3,3.9c1.5,4.8-.9,6.6-3.9,9.5-2.8,2.8-6.7,7.1-8,10.9-.6,1.9,0,4-.2,5.9s-1.1,3.1-1.8,4.7c-1,2.1-.9,4.1-.8,6.4,0,1.3,0,6.7,1.8,4.9.9-.9.8-4.7,1.1-6,.4-2.1.4-4.7,1.1-6.8.7-2.4,2.9-3.8,4.4-5.8,1.8-2.3,2.9-5.4,4.3-8.1a30.15,30.15,0,0,1,5.3-6.9c2.3-2.4,5-4.8,6.1-7.9,1.4-3.9-1.5-4.1-3.1-7-1.4-2.7,2.4-4,4.2-5.2,3-2,5.4-3.9,6.4-7.4.8-2.7,1-4.9,2.4-7.2a55.25,55.25,0,0,1,4.6-6.2c1.6-2,2.9-3,5.6-2.4,2.5.5,5.1,1.6,7.6,2.2,4.8,1.2,8.4,3.5,10.6,7.9,2.4,4.6-1.3,10.6-3.5,14.7-3,5.6-3.8,12.3-8,17.1s-10.6,5.1-15.4,8.7c-2.3,1.7-3.9,4.3-1.9,7.1,1.6,2.3,5.2,2.5,7.8,2,6.4-1.2,5.1-6.8,7.9-11.1a7.29,7.29,0,0,1,4.5-2.7c2.7-.3,2.6,1.5,3.3,3.5,1.5,4,4.5,8.1,6.8,11.5,1.1,1.8,1.6.9,3.5-.2,1.6-.9,3.1-2,4.7-2.7,4.1-1.5,4.8,4.6,9.3,3.8.4-5.2-5.1-4.6-6.6-8.6-1.4-3.5.6-8.3.3-12.1a31.14,31.14,0,0,0-1.6-6.7c-.8-2.2-2.2-3.9-1.6-6.4.7-3.5.6-7.4,1.4-10.8.7-2.9,3.7-5.2,2.7-8.6-1.2-4.1-7.4-6.4-10.6-8.8-1.5-1.2-4.2-3.1-4.8-5-.5-1.5,0-4,0-5.6,0-4.8,2.5-4.7,6.8-4.7,3.5,0,7.3.6,10.8,0,2.8-.5,6.4-3.5,9-1s2.3,6.6,6,8.9c3.4,2.1,10.1,2.1,12.8,5.3,3,3.5-3.9,8.2-3.7,11.6.2,0,.5-.1.6-.1,2.8,0,5.9-7.2,7.6-9,2.1-2.2,5.1-3.5,8-4.6v.1c1.8.4,3.6,2.8,4.7,4.2,2,2.5,2.4,5.4,6,3.4,3-1.7,6.2-3.4,9-5.3,1.1-.8,1.9-1.7,3-2.5,2-1.6,4.8-2.6,7-3.9,1.8-1.1,4.9-3,7-1.6,3.8,2.8,6.4,7.4,8.3,11.7,2.1,4.8,4.1,10.2,7,14.7a85.47,85.47,0,0,0,7.8,10.4,31.46,31.46,0,0,0,3.6,3.7,11.78,11.78,0,0,0,2.2,1.7C1844.2,1457.4,1845.6,1457.4,1845.9,1457.5Z" transform="translate(0.3)"/><path id="path22" class="cls-3" d="M1694.4,1400c1.9,1.8,4.8,4.3,4.5,7.1-.2,2.2-2,3.2-3.7,4.5-5.5,4.2-10.9,8.3-16.3,12.7-5.9,4.8-13.9,8.3-18,14.8-1.1,1.8-3.7,6-6.5,4.6a3.38,3.38,0,0,1-1.6-2.5,18.85,18.85,0,0,1-.2-3.3c0-4.3-.8-6.3-3.9-9.4-2.1-2-5.2-5.6-8.2-6.3-4.4-1.1-17.5,2.6-17.7-4.5-.1-2.3.9-4.6,2.2-6.9,1.6-2.8,3.8-5.4,5.1-7.8,2.1-4,4-7.9,5.8-12,1.6-3.9,3.8-6.6,6.5-9.7,2.1-2.3,3.3-5.3,4.6-8a14.84,14.84,0,0,0,1.6-4.9c.1-.9-.7-2.8,1.1-2.5,1.4.2,1.8,3.7,2.6,4.7,1.6,2,5.1,2.6,7.4,1.8.7-3.4-8.1-3.3-6.8-8.6,1.5-6,7.3-1.8,10.1.5,1.9,1.5,3.3,1.6,5.6,2.2,1.8.5,2.9,2.3,4.1,3.6s2.9,2.7,4.1,4.2c1.9,2.2,3,4.9,4.4,7.4,1.6,2.8,3,5.7,4.7,8.4C1688.2,1394,1691,1396.8,1694.4,1400Z" transform="translate(0.3)"/><path id="path28" class="cls-3" d="M1649.3,1445.5c.3,3.4-1.4,6.6-3.1,9.4-2.1,3.3-5.6,2.7-9,3.8-2.6.9-5.3,2.8-8.1,2.9s-5.6-2.1-8.2-3.1c-5.2-2-9.8-7.3-10.3-13.1a11,11,0,0,1,.5-4.1c1.6-4.4,6.2-7.7,10-10.4,2.1-1.6,4.6-3.2,7.4-3.1,5,0,10.5,2.8,14,6.5,2.3,2.4,4.8,5,6,8.1A9.4,9.4,0,0,1,1649.3,1445.5Z" transform="translate(0.3)"/><path id="path30" class="cls-3" d="M1643.1,1349.9c.1,1.3-.9,1.2-1.6,1.9-1.4,1.4-1.8,3.2-3.1,4.4-1.8,1.5-4,1.1-6.1,1.5-1.8.3-6.1,2-3.6,4.1,1.9,1.6,6.2.8,8.5,1.3.2,1.9-3.3,4.1-4.5,5.4-2.2,2.2-2.2,4.6-2.5,7.6-.2,1.7.2,3.4,0,5-.2,1.9-.3,2.3-1.7,1.1-2.2-1.9-3.1-6.8-6.9-6-.4,1.9,1.5,2.9,2.6,4.2,2.2,2.3,1.8,4.6,1.2,7.6a150.34,150.34,0,0,1-4.6,19c-.3.9-.7,2.2-1.2,3.4-.9,2-2.2,3.9-4.2,4.2-3.4.5-3.1-3.7-3.1-5.9a26.69,26.69,0,0,0-1.2-8.4c-1.1-3.8-5-6-6.1-9.9-.6-2.2-.5-4.3-1.5-6.5s-2.5-4-3.8-6.1c-2.7-4.5-4.2-8.6-1.3-13.4,2.6-4.2,8.1-5.4,11.3-9.2,3.6-4.3,5.8-9.4,10.9-12.2,4.2-2.3,9-1.1,13,.9a44.19,44.19,0,0,1,6.1,3.2C1641,1347.5,1643.1,1348.4,1643.1,1349.9Z" transform="translate(0.3)"/><path id="path32" class="cls-3" d="M1599.4,1435.1c3.6,0,5.8,1.7,4.6,5.6a9.35,9.35,0,0,1-3.5,5.2,20,20,0,0,0-2.4,1.6c-.6.6-.7,1.6-1.3,2.1-1.6,1.2-4.8.4-5.4-1.5-.5-1.4.4-3.6,1-4.8,1-2,4.2-7.4,7-8.3Z" transform="translate(0.3)"/><path id="path34" class="cls-3" d="M1596.1,1398.1c.1,2.3-1.5,3.7-3.7,2.6-3.6-1.8-5.7-7.2-6.8-10.8-.9-2.9-1.6-5.7-2.6-8.6-.9-2.5-2.3-4-3.8-6.1-1.1-1.5-1.3-3.3-2.2-4.8-.8-1.3-3.4-2.4-2.8-4.3,1.3-.8,2.2-.7,2.4-2.3a7.92,7.92,0,0,0-1-4c-.9-2-3.7-3.8-4.4-5.9-1.6-5,8,.3,7.1-3.9-.5-2.1-2.8-2.2-4.4-3s-2.1-2-3-3.4-2.6-2.3-3.6-3.7c-.1-.2-.3-.4-.4-.6-.9-1.8-.4-5.5-.3-7.6.2-2.6.3-7,2.8-8.6,3.2-2.1,7.4,1.5,9,4.2,1.9,3.2,4.9,6,6.6,9.3,2.3,4.7,1.3,10.6,3.7,15.3,2.1,4.2,3.1,7.5.5,11.6a3.51,3.51,0,0,1-.5.8c-3.3,4.5-2.2,8.8-1.5,13.9.9,5.8,2.2,11.2,6.3,15.7C1594.7,1395.2,1596,1396.2,1596.1,1398.1Z" transform="translate(0.3)"/><path id="path36" class="cls-3" d="M1593.8,1466.3c1.3,1.2-.1,4.9-.3,6.6-.5,3.9.4,13.2-4.7,13.8-4.9.6-7.6-5.3-9.8-8.7-2.4-3.6-7.9-10.3-7.2-15.8a5.63,5.63,0,0,1,1.2-3c1.8-2.4,4.8-3.8,7-5.8,1.1-1.2,2.1-3.1,3.9-3.3h.7c6,0,3.3,9.9,4.3,13.3C1589.7,1466.7,1591.8,1464.4,1593.8,1466.3Z" transform="translate(0.3)"/><path id="path38" class="cls-3" d="M1572,1408.2c2,1.4,9.5-1.4,8.9,4.1-.5,4.6-8.1,0-8.3,4-.1,1.8,1.5,3.4,1.3,5.3-.3,2.9-1.6,1.2-3.2,2.3-1.1.8-1.6,5.6-.9,6.8,1.6,2.7,6.7,1.4,8.6,4,3.4,4.6-1.2,8.6-4.6,10.8-2.3,1.6-4.6,3.5-5.8,6.1-1.1,2.2-.9,5.4-1.3,7.8-.1.8-.3,1.5-.4,2.2a55.33,55.33,0,0,0-1.7,6.4c-.4,2.1,0,4.6.2,6.7.3,3.8,1.2,10.1-1.1,13.3-1.6,2.1-4.6,2.8-6.6,4.4-2.8,2.3-5,5.3-8,7.5a37.65,37.65,0,0,1-7.1,3.9,4.1,4.1,0,0,1-5.1-1.1c-1.1-1.3-1.7-5.2-3.5-5.4-2.3-.2-2.7,4-4.2,5.2-3.4,2.9-9.6-.9-12.9-1.9-3.8-1.2-11.7-2.1-10.2-8.3,1.2-4.7,6.1-5.5,10.1-6.6a14.63,14.63,0,0,0,5.1-3c2.1-1.7,4-1.9,6.6-2.3,3.2-.5,6.6-1,9.9-1.4.1,1.4-.3,3.3.6,4.5,1.6,1.9,2.2.4,3.3-.8a9.62,9.62,0,0,1,4.4-3.1c1.8-.6,3.5-1,3.7-3.1.4-3.6-4.8-1.9-5.8-5.1-.8-2.8,3.1-6,4.5-8.1,2.6-3.7,3.3-7.7.4-11.4-3.4-4.5-.1-8,4.6-9.8,1.7-.6,4.7-2.4,2.5-4.3-1.7-1.4-4.9.4-6.8-.4s-2.3-4.5-3-6.4c-1-2.8-2.3-5.4-3.5-8-1.3-2.8-3.7-5.2-4.3-8.3-.4-1.8.4-5-1-6.1-2,2.5-2.8,10.4-6.8,8.1-3.4-1.9-5.2-6.8-7.6-9.8-3.8-4.7-7.9.7-10.3,4.3-1.9,2.8-2,6.3-3.6,9.1-1.1,1.8-4,6.3-6.2,6.2-3.7-.3-3.9-5.7-4-8.4,0-1.7.4-3.7.1-5.4-.3-2.4-2.5-4.3-4.1-6.1-1.9-2.3-3.9-2.2-6.5-3.5-3-1.5-1.1-3.9-.3-6,.6-1.6.6-3.7,2.9-2.9,1.1.4,1,1.5,2.8,1.6a7.44,7.44,0,0,0,2.6-.2c2.1-.6,4-1.8,3.9-4.1-.1-4.4-6.9-4.6-4.8-9.8a124.87,124.87,0,0,0,5.4-14.4c.7-2.3,1-5,1.8-7.3,1-2.4,2.9-3.4,4.5-5.2,1.4-1.4,2.2-3.7.9-5.3-1.2-1.4-5.3-.8-5-2.9.3-1.7,3.2-1.7,4.4-2.4,3.2-1.9,3.4-7.1,5-10.1s3.6-5,3.5-8.7c-.1-2.8-1.2-4.4-2.2-6.9-1.2-2.8-1.6-5.8-2.9-8.6a41,41,0,0,0-4.1-7.4c-1.5-2.1-2.3-3-1-5.4,1.1-1.9,3.3-4.1,5.4-4.5,2.5-.5,4.5,2,6.3,3.4,3,2.4,4.4,5.2,6.1,8.6,1.3,2.5,2.6,5.7,6,5.3,1.9-.2,4.8-.9,6.2-2,1.7-1.4,6.2-6.1,5.4-8.5-.2-.6-1.4-1-1.6-1.6a14,14,0,0,1,0-2.9c.1-2.5,1-5.5,3.3-6.8,2.9,3.4,2.8,7.3,3.1,11.5a15.9,15.9,0,0,0,2.1,7.2c1.2,1.8,3.1,3.1,4.4,4.8a42.27,42.27,0,0,0,3.3,4.1c1.1,1.1,3,3,1.8,4.8-.9,1.2-4.3,1.8-5.6,2.6-.9.5-2.6,1.1-2.7,2.2,0,.8,1.8,3.3,2.2,4.1a10.19,10.19,0,0,0,5.9,4.9c3.2,1.3,4.6,4.1,6.7,6.9,1.4,1.7,3.3,4.6,1.6,6.8-1,1.3-4.6,1-3.9,3.3.3,1.1,2.1.8,2.9,1.4a7,7,0,0,1,1.5,2c1.2,1.7,2.7,3,3.5,4.9.6,1.4,1.3,4.3.6,5.8-.8,1.8-2.9,1.4-4.5,1s-10.6-5.6-9.8-.5c.1.7,1.3,1.9,1.7,2.6a10.66,10.66,0,0,1,1.7,4.4c.2,1.9-.5,5.4,1.2,6.8,1.4,1.2,2.7-.3,3.7-1.5,1.6-1.8,2.4-1.9,5-1.8a9.49,9.49,0,0,1,6.1,2.7c2,2.1,1.2,3.8.3,6.1-1.1,3.2-2.5,5.9-6,6.8-1.7.5-6.6,0-6.9,1.9-.3,1.2.7,1.4,1.2,2.3a27.92,27.92,0,0,1,1.4,3.7,16.55,16.55,0,0,0,3.5,5.1C1569.9,1405.5,1570.8,1407.3,1572,1408.2Z" transform="translate(0.3)"/><path id="path42" class="cls-3" d="M1540.7,1445.9c.8,2.1-.3,3.3-2.1,4.5-2.1,1.4-4.7,1.7-6.9,2.8-1.3.7-3,1.9-4.4.8s-1.1-3.7-2.7-4.8c-1.4-.9-1.5.3-2.5,1.1-1.2.9-2.8,1.4-4,2.3a9,9,0,0,1-4.4,1.8,36.17,36.17,0,0,1-5.7.1c-2.2,0-2.3.8-4,1.8-4.4,2.5-2.4-5.7-2.4-7.7,0-.9.1-1.6-.6-2.2-.4-.4-1.3-.3-1.6-.9-.7-1.5,1.3-2.4,2.3-2.9a5.83,5.83,0,0,0,3.7-4.2,16.79,16.79,0,0,1,3.3-5.8c1.2-1.5,2.6-2.1,3.5-4s1.5-3.5,3.2-1.6a14.59,14.59,0,0,1,2.9,6,10.71,10.71,0,0,0,.9,2.7,9.14,9.14,0,0,1,1.6,2.4c.4,1,.5,2.1.9,3.1,1,2,2.5,3.4,4.7,1.9,3.6-2.5,1.2-8.4,1.2-11.9,0-1.4,0-4,1.4-4.8,1.8-1,3,2.6,3.7,3.8,1,1.6,2.3,2.9,3.3,4.6a44.69,44.69,0,0,1,2.7,5.9C1539.4,1442.4,1540,1444.2,1540.7,1445.9Z" transform="translate(0.3)"/><path id="path44" class="cls-3" d="M1519.7,1513.1c.4,6.6-4.9,9.7-9.1,14-3.7,3.8-7.8,4.1-12.8,4s-5.2-5.2-6.5-9c-1-2.8-1.4-4.2-.6-7.2.7-2.4,1.6-6-.3-8.2-1.4-1.6-4.4-1.9-5.7.1-.9,1.4.2,3.6.2,5.1-.1,2-.9,2.3-2.6,3.3-1.1.6-2.7,1-3.7,1.7-1.3.9-1.7,3.2-3.1,3.5-4.9.9-13-6.4-10.4-11.2,2.8-5.1,6.4-9.3,11.6-11.7a43.89,43.89,0,0,0,9.3-6.1c2.1-1.7,3.5-2.1,6-1.1,5.9,2.4,7.4,10.2,12.7,13.6C1508.9,1506.4,1519.3,1506.6,1519.7,1513.1Z" transform="translate(0.3)"/></g><g id="The_Bronx" data-name="The Bronx"><path id="path24" class="cls-4" d="M1686.8,347c2.9,3.7,6.8,8.9,5.8,14-.5,2.5-2.2,3.4-3.8,5.2-2,2.4-2.8,5.4-4.1,8.2-4.4,9.2-8.7.1-10.8-4.6-1.2-2.7-2.1-5.8-4.2-7.9-2.5-2.7-5.2-4.3-7-7.6-2.2-4.2-2.5-8.8-4.4-13a102.73,102.73,0,0,0-5.1-9.2c-2.9-4.8-6.8-7.3-2.1-12a21.68,21.68,0,0,0,4.2-6.3c1.1-2.3,3.7-4.5,3.9-7.1.4-4.9-5.3-11-8-14.8-3.4-4.7-6.7-10.4-3.8-16.2,2.6-5.2,9.5-9.3,12-2,1,3,.2,6.1.6,9.3a43,43,0,0,0,3.3,11.1,14.62,14.62,0,0,0,8.4,7.8c2.7,1.1,5.7,2,7,4.9,1.5,3.5.8,8.1,1.3,11.8.3,2.5,1.1,4.5,3.2,5.8,1.9,1.2,5.3,1.6,6.7,3.6,4.6,6.6-7.4,3.6-9.3,7.4C1678.1,340.4,1684.3,343.8,1686.8,347Z" transform="translate(0.3)"/><path id="path26" class="cls-4" d="M1677.5,203.4c3.6.1,3.3,6.6,2.5,9-2.3,6.9-11.9,9-18.2,11.1-8.6,2.9-8.4,11.4-9,19.4-.3,4.2-.6,8.4-.8,12.7-.3,4.9-2.7,5.8-5.3,9.5-3.8,5.6-2.7,11.6-8.7,16-5.8,4.4-15.2,6.9-9,15.6,2.1,3,5,4.2,4.1,8.7-.8,3.6-3.9,5.4-5.5,8.6-1.6,2.9-.9,8.4-2.8,10.8-2.9,3.8-3.6-1.7-5.1-4.1-3.5-5.8-9.2-9.6-12.4-16.1-1.5-3.1-1.9-6.7-3.3-10-1.4-3.6-3.2-6.2-3.2-10.3.1-3.3.5-8,1.6-11.1,1.2-3.3,4.6-7.1,2.9-11.1-1.8-4.2-6.4-2.4-8.2,1.2-1.8,3.3,1.5,7,.4,10-1.8,4.7-5-1.6-6.3-3.6-1.9-2.9-4.2-5.3-6-8.4s-3-7.3-5.4-9.8c-1.4-1.4-2.3-2.5-4.5-2.1s-1.6,2.4-3,2.8c-5.5,1.6-3-3.4-3.6-6.1-.8-3.5-5.8-2.8-6.2-6.2-.4-2.9,4-4.3,4.5-7,.4-1.9-1.1-3.4-.8-5.4.2-1.4,1.6-2.5,1.9-3.8,1.2-3.8.1-8.2-4-4.8-1.2,1-6.3,8.4-6.2,1.3-3.8-.6-2.8,4.9-7.2,3.6-2.3-.7-5-5.4-6.2-7.4-1.7-2.8-2.8-6.4-1.9-9.6,1.5-4.9,3.6-3.7,7.6-4.8,4.8-1.4,3.2-3.7.7-6.6-2.9-3.2-4.7-4.3-4-9,2-13.3,15.7-25.3,4.8-39.2-4.7,2.3-3,15.6-3.7,20.1-1.1,7.8-5.7,13.2-9.5,20.2-4.8,9-2.3,18.5,1.2,27.7,2.7,7.2,8.7,9.9,9.2,18,.2,3.5-.4,8.1.4,11.5.8,3.6,4.9,4.6,5.8,7.9,1.4,5.5-13.4,13.2-7,16.1,5.5,2.4,4.6-4.2,5.9-6.6,1.7-3.3,7.6-3.5,10.9-2.4,3.9,1.3,5.5,4.9,5,9.1-.6,5.4-3.3,4-7.7,6.2-3.3,1.6-6.3,4.8-6.7,8.6-.5,5.5,3,3.9,5.8,6.5s1.6,5-.1,7.9c-2.1,3.6-3.7,5.1.1,9,2.1,2.1,6.3,2.4,5.8,5.1-.8,4.9-7.5,1.4-8.7,3.6-1.1,2,2.8,1.8,3.6,2.6,1.7,1.7,1.2,1.3,1.6,3.6.4,2-1,2.6.4,4.9.9,1.5,2.3,2.2,3.6,3.3,3.2,2.5,13.6,11.7,6.4,16.1-5.6,3.4-9-12.1-16.4-6.1,1.7,1.3,3.7,1.8,5.2,3.3a77.08,77.08,0,0,1,6.3,6.5,21.74,21.74,0,0,1,2.4,4.5c1,2.5,2.3,6,.1,8.4-2.5,2.9-5.2,1.1-6.3,5.6-1.5,6.8.3,16,1.2,22.6.7,5.1,1.9,10.2,5.1,14.3,2.1,2.7,9.8,6.5,8.5,10.5-.9,2.7-5.7,2.7-7.1,5.3-1.1,2.2-.5,10,1.4,11.6,2.6,2.1,6.4-.8,8.6-3s3.7-7.2,7.4-7.7c3.9-.5,5.8,3.3,7.3,6.2,4.2,7.8,2.7,17.5,7.1,25.5,3.9,7,14.9,8.9,21.9,12.1,10.2,4.7,5.2,9.1-1.6,13.2-5.5,3.3-11.1,10.7-16.2,2.8-3.8-6-2.3-15.9-11.5-15.2.1,3.4,3.2,6.3,4.9,9,2,3.2,1.1,6.4,2.6,9.4,3.4,7.2,12.3,10.9,19.3,12.4s12.2,6.4,18.6,9.6c5.5,2.7,14.8,2.3,17.4,9.7,3.4,9.8-8.8,9.2-14.6,6.3-6.7-3.3-12.3-8.7-18.9-12.3-4.8-2.6-8.2-2.5-13.2-3.4-3.9-.7-6.8-3.4-9.9-5.7-7.5-5.4-14.2-11.2-21.6-17-8.3-6.5-21.3-3.6-30.3,1.1-4.6,2.4-8.3,6.8-13.1,8.5-5.2,1.9-10.7-.8-16.1-.9-3.3-.1-8.8,0-10.9,2.9-2.3,3.2-.2,9.3.1,12.7.6,5.3.1,10.3-5.3,11.2-13.2,2.4-15.9-7.6-20.8-16.5-3.3-6.1-3.2-11.2-3.2-18.2s-1.4-13.8-.8-20.9c.5-6.6,4.6-11.9,4.5-19-.1-8.5-3.3-17.8-6.3-25.8-.7-1.9-4.9-11.3-7.4-10.1-2.2,1.2,1,15,1.2,16.5.8,4.3,2.1,8.6,3,12.7s3.2,7.3,4,11.1c2.1,9.5-8.4,12.7-12.9,19.4-3.1,4.7-3.9,8.4-4.8,13.7-.4,2.4-2.2,10.6-4.9,11.5-5.4,1.9-9.7-10.8-14.5-12.5-3.1-1.1-7.2-.6-9.9-2.9-2.5-2.1-3.1-9.4-6.6-9.4-4.6,0-.4,7.1,1.2,9,3,3.5,7.3,4.4,11.1,6.7,2.8,1.6,6.7,4.2,7.4,7.4,1,4.4-4.2,5.7-3.4,9.5.6,3.1,6.2,5.8,8.3,7.8,2.7,2.5,6.5,6.6,6.6,10.3.2,8.6-16.2,9.3-22.2,11.4-4.5,1.6-8.8,3.3-12.2-.3-2.8-3-4.4-7.9-6.6-11.5-2.9-4.7-2.6-8.9-2.1-14.5.2-2.4,1.9-9.4-.2-11.2-2.3-1.9-8.9,1.5-11.2,2.2-4.1,1.2-8.8,2.7-13.2,1.7-10-2.2-11-11.5-16.5-17.9-6.3-7.4-15.8-3.3-22.5-9-3.5-3-5.4-7.4-8.5-10.8-2.8-2.9-6.9-4-6.2,1.3,1.2,8.8,12.3,12.3,18.8,15.7,3.9,2,8.4,3.8,11.9,5.8,3.3,1.9,4.2,4.8,5.9,8.1s3.4,6.3,5,9.7a63.14,63.14,0,0,0,3.1,6.4c1,1.5,2.7,2.2,3.3,4.1,4.5,13.4-8.9,30.6-21.9,31.8-6.5.6-5.4-1.5-7.7-5.8s-8.6-7-13-8.2c-6-1.6-8.3,1-12.3,4.9s-6.1,6.2-10.2,2.1c-3.2-3.2-5.1-7.9-7.9-11.4-9.1-11.1-20.5-15.4-34.9-12.1-10.5,2.4-15.4,8-22,15.6-4.4,5.1-8.1,9.6-11,15.9-1.8,3.7-3.4,7.6-6.2,10.6-3.4,3.7-5.1,4.2-9.9,3.7-2.6-.3-7.8-2-10.3-.8a4.85,4.85,0,0,0-1.3.9l-23.8-23.6-16.4,1.4c-.1-.1-.1-.1-.1-.2-4.6-6.4-9.2-13.2-13.8-20-4.8-7-10.8-13.6-10.8-22.6v-.3c.1-8.9,1.9-18,4.1-26.3,1.8-7,1.2-15.5,2-22.7.9-8.2-1.4-17.5-3.8-25.4-2.5-8.3-5.2-15-3.7-23.7,1.2-7.1,3.4-13.7,5.5-20.6,1.9-6.2,2.4-12.8,3.8-19.2a44,44,0,0,1,1.8-6.2c1.9-5.1,5.1-9.1,8-13.7,4-6.3,6.3-14,9.4-20.8,5.3-11.5,12.3-20.3,20.5-29.6a204.59,204.59,0,0,0,29.5-43.7c5.9-11.7,16.1-30.1,2.7-41-3.9-2.9-9-5.7-13.6-6.7s-7.5-.4-11.6-1.3a18.35,18.35,0,0,1-9.7-6.2,59.49,59.49,0,0,0-6.8-8.1c-3.5-3.2-7.8-4.8-8.1-10-.3-3.9,2-7.8,3.3-11.4,2.8-8.4,5.4-17.1,7.7-25.7,4.3-15.6,10.7-29.8,16.5-44.7,3.2-8.2,4.6-17.9,7.1-26.5,2.1-7.5,5.2-14.8,6.7-22.6,1.6-8.4,1.2-16.8,2.4-25.2.3-2,.8-4.1,1.3-6.2,10.4,3,171.8,73.9,179.6,72.4,1.2-3.3,1-7.3,2.4-10.3s4.7-3.1,6.3-6.1c1.5-2.7-.2-5.4.4-8.2,1-4.4,4.4-2.9,7-5.5,5.5-5.4-3-12,6.5-15.2,9-3.1,6.6,8.8-1.1,9.7,2.2,2.3,5.4,2.9,7.4,5.3,2.9,3.6,4.1,5.4,4.9-.5.7-5.1,2.2-5.5,5.7-1.5,2.9,3.3,3.9,3.9,7.8,5.5a11.66,11.66,0,0,1,4.2,2.7c1.4,1.7.3,3,1.2,4.6,2.2,4,5.1,1,8.6.9,10.6-.3,3.1,11.3,7,15.6,3,3.4,7.6,3.8,4.7,9.9-1.2,2.4-3.1,2.2-3,5.4s1.8,2.5,3.6,4.6c3.2,3.8-.1,8.6,4.3,11.4,1.9,1.2,51.3,20.3,55.5,19.8-.5-3.6-5.8-5.4-1.6-7.4,2.7-1.2,8.6.1,11,1.3,11.6,5.3,89.2,32.5,95.8,35.4l.1.1a.22.22,0,0,0-.2.2c-1,1.2-.8,2.9-1.4,4.3-.8,1.8-2.3,3-3.4,4.4-2.8,3.7-1.6,5.7-2.4,9.9s-4.4,5.6-5,9.9c-.5,4,1.2,7.3-2.1,10.2s-6.2,1.9-8.1,5.9c-2.3,4.8-3.5,18-10.7,13.2-1-.7-.8-3.9-3-2.1-.9.7.1,3.6.2,4.6.4,2.7,1.9,8-2.6,7.8-5.9-.2-8.2-12.6-15.2-12.3-.5,6.1,8,11.6,10.8,16.3,2.9,5,8.5,15.4,14.6,8.3,5.2-6.2,8.1-15.2,12-22.3,2.1-3.7,4.1-7.2,7.6-9.7,3.2-2.4,5.6-1.5,6.5-5.9.8-3.9.1-6.2,2-9.9,1.1-2,3-2.2,1.7-4.9-.7-1.4-2.7-.5-3.3-2.6-1.4-4.7,9.2-15.9,14-14.4,3.8,1.2,2,4.8,6.6,5.8,4.2.9,7.7-.3,11.1,3.3,6.1,6.5.4,13.1-4.9,17-.9.7-4.2,2.5-4.6,3.6-1,3,.8,1.7,1.7,3.6.8,1.7.8,8,2.5,8.7,4.5,2.2,5-5.5,8.5-5.4Z" transform="translate(0.3)"/><path id="path74" class="cls-4" d="M1373,595.2c1.7,2.4,4.5,6.2,2,9s-6.6,1.5-7.8,5.6c-.6,1.9-.9,2.4-2.9,3.1a19.81,19.81,0,0,1-5.4,1c-5,.4-9.9-.3-15-.3a28.25,28.25,0,0,1-7.1-.4c-3.2-.9-6.1-2.4-9.3-3.3-3.5-1-7-1.7-10.6-2.4-2.7-.5-4.8-.7-7.1-2.5-3.6-2.8-3.3-8-6.5-11.2-1.6-1.5-3.7-2.5-5.3-4.2-1.8-1.8-2.1-2.8-1.4-5.2s1.7-4.7,2.4-7.2a77,77,0,0,0,1.7-8.6c.4-2.6,1-5.2,1.4-7.7s1.5-3.4,3.5-4.8a9.78,9.78,0,0,0,3.4-3.3c.6-1.2,1.5-4.6,3.4-3.5,1,.5,1.9,3.3,2.5,4.3a22.66,22.66,0,0,0,2.9,4c1.7,1.5,4,2.5,5.9,3.8a28.7,28.7,0,0,0,5.7,3.6c8.9,3.7,20.9,5.4,24,16.4.4,1.6.5,3.3.8,5,.1.9-.1,3.4,1.1,2.4.7-.6.3-2.2.6-2.9a5.74,5.74,0,0,1,2.1-2c2.3-1.6,2.7-.7,4.4,1.1s3.6,4,5.9,5.3a7.4,7.4,0,0,1,2.6,1.5C1371.7,592.8,1372.2,594.2,1373,595.2Z" transform="translate(0.3)"/><path id="path78" class="cls-4" d="M1284.6,562.1c1.2.3,2.5,2.1,1.6,3.3-.7,1-2.7.6-3.7,1.2-1.3.7-1.3,2.6-3.1,2.2a19.39,19.39,0,0,1-3.5-1.8c-1.1-.5-1.2-1.8-2.1-2.5s-2.1-.5-3-.9-3-2.1-1.4-2.9c1.3-.6,2.6.1,3.4-1.4.7-1.3,1.1-2,2.7-2.1a3,3,0,0,1,2.4.9c1.1,1,1.7,2.2,2.9,3.1S1283.2,561.6,1284.6,562.1Z" transform="translate(0.3)"/><path id="path80" class="cls-4" d="M1285.4,540c1.1.4,1.5,1.5.7,2.3-.9,1-2.3,1.4-3.5,2a10.65,10.65,0,0,0-3.5,2.9,31.68,31.68,0,0,0-3.4,3.9c-.4.6-.9,1.7-1.6,2.1a2.48,2.48,0,0,1-1.9-.1c-1.3-.3-2.2-1.3-3.3-1.8-1.3-.6-3.3-.7-4.4-1.7-.8-.9-.1-1.9.9-2.2,1.2-.4,2.4.3,2.9-1.3a2.74,2.74,0,0,0-.7-2.8,9.89,9.89,0,0,0-2.5-2.5c-.8-.5-1.6-1.3-.8-2.3.6-.8,2-.5,2.8-.8a4.39,4.39,0,0,0,1.8-1.2c1-.9,2.2-1.6,3.2-2.5s.5-1.5.9-2.4c.6-1.5,3.2-2,4-.4.5,1.1.8,2.2,1.3,3.3a10,10,0,0,0,3.2,3.9C1282.7,539.5,1284,539.5,1285.4,540Z" transform="translate(0.3)"/><path id="path16" class="cls-4" d="M1742.8,282.2c1.6,1,8.6,3.9,6.1,6.6-1.2,1.3-6.1,0-7.7.1-5.4.3-9,2.7-8.7,8.4.1,2.8-.2,6.1.3,8.9.5,2.6,1.5,4.3.7,7.1-1.3,4.8-7.7,4.6-4,10.8a27.07,27.07,0,0,0,4.7,6c1.5,1.4,4.7,3.1,4.3,5.5a23.75,23.75,0,0,1-4.6.1c-4.3-.6-7.8-6-10.4-9.1-1.7-2.1-3-4.4-1.9-7.1.9-2.4,2.6-2.5,2.4-5.5-.3-5.5-7.9-5.7-5-12.1,1-2.2,3.7-4.1,2.8-6.9-.8-2.3-3.4-3.7-4.2-6.2-.8-2.3-.1-4.9-.4-7.3a36.81,36.81,0,0,1-.8-8.2c.2-3.9,2.6-3.8,4.8-6.5,1.4-1.8.9-4.6,3.2-5.6,2.8-1.1,4.9,1.3,6.1,3.4C1734.1,271.1,1736,278,1742.8,282.2Z" transform="translate(0.3)"/></g><g id="Straten_Island" data-name="Straten Island"><path id="path102" class="cls-3" d="M729.7,1450.3c3.1,2.4,10.8,3.7,10.7,8.6-.1,3.3-3.1,6.1-4.6,8.9a46,46,0,0,0-2.9,7.6c-1.9,5.8-4,11.8-6.4,17.6-1.8,4.2-4.6,8-7.1,12.1-2.4,3.9-4.2,8.4-7,12.1-3.4,4.6-10.7,7.2-15.4,10.5-4.1,2.9-7.5,6-9.7,10.6-2.1,4.3-4.1,8.2-7.3,11.9-4.2,4.9-7.7,11.1-12.9,15-18.3,13.8-33.3,31.5-49.1,47.9a103.22,103.22,0,0,0-8.9,10.9c-2.4,3.3-4.8,6.9-8.2,9.3-3.6,2.4-4.6,5.1-6.6,8.9a71.49,71.49,0,0,1-6.9,11.5c-2.2,2.7-4.5,5.5-6.4,8.3-1.3,2-2.7,5.3-4.9,6.2-2.6,1.2-4.5-1.6-7.3-1-3.8.9-4.8,4-5.7,7.1-1.1,3.8-1.9,7.4-4.1,10.8s-4.7,6.5-6.6,9.9c-.7,1.3-1.4,5.2-2.7,5.9-3,1.7-2.9-3.4-3.7-5.2-2.6-6.2-6,4.9-8,6.9-4.9,4.7-9.3,8.9-12.6,15.1a62.54,62.54,0,0,1-14.8,18c-3.2,2.7-6.6,5-10,7.4-3,2.1-5.7,4.9-9.3,6-3.8,1.2-5.9,1.4-9.1,3.9a80.49,80.49,0,0,0-10.5,9.7c-10.1,12.2-16.5,27.2-28.3,37.9-3.5,3.2-7.5,7.8-11.4,2.5-3.1-4.2-8.6-10.4-10.1-15.4-.8-2.7.2-5.1,1.4-7.5,1.8-3.6,2.6-4.4,6.6-4.4,5.7,0,11.9,1.6,16.6-1.8a26.25,26.25,0,0,0,7.1-6.6c1.8-2.7,3.6-5.8,5.7-8.5,3.6-4.6,9.2-8.8,10-14.9.7-5.3-6.4-12.5-10.8-15.1-4.2-2.4-10.1-5.3-14.7-2.4-3.1,1.9-3.5,6.4-7.3,7.5-4.6,1.4-10.9-1.1-10.9,5.8,0,2.8.1,4.6-2.5,5.5s-4.4.3-5.2,3.6c-.4,1.8-.9,6.2-.2,8,.8,2.3,2.9,3,3.2,5.5.7,4.8-2.2,6.8-5.2,9.6-1.5,1.4-2.3,3.1-3.6,4.6-.4.4-1.4.7-1.8,1.1a25.34,25.34,0,0,0-1.8,2.7c-1.8,2.4-3.8,4.6-5.5,7.1-3.3,4.7-6.6,6-11.8,8.3-7.2,3.1-14.5,5.7-21.3,9.7-4.7,2.8-9.2,6.2-13.9,9.1a138.62,138.62,0,0,0-15.3,11.1c-3.9,3.3-7.8,6.9-12.4,9.1-2.7,1.3-5.8,2.1-7.9,4.2s-2.7,4.8-5,.7c-1.6-2.9-2.2-5.1-5.9-4.8-.9,8.5-6.9,10.2-13,15.1-2.1,1.7-4.1,4.2-6.9,4.7-4.6.7-4.8-4.5-7.3-6.9-2.2-2.1-6,.1-8.5,2-3.1,2.3-5.9,4.8-9.1,7-3.5,2.5-7,4.7-8.9,8.6-2.1,4.2-3.6,8.4-6.3,12.3-3.4,4.8-13.7,21.9-21.1,19-2.4-.9-2.9-3.9-5.3-5-2.9-1.4-6.6-.7-9-3.3-2-2.2,0-4.5-1.1-6.8-1.8-3.8-3.6.7-4.9,2.3-1.9,2.2-3.6,1.7-6.4,1.8-8.8.4-15.4,2.5-22.1,8.3a44.48,44.48,0,0,0-13.3,19.2c-2.4,6.9-7,10.1-12.9,14s-10.3,7.1-17.7,5c-3.4-1-7-1.8-8.8,1.9-1,2-1.1,5.3-3.6,6.6-5.8,2.8-9.2-6.1-12.9-7.4-6.3-2.3-12.7,1.7-17.6,5.3-2.4,1.8-4.9,3.5-7.4,5.1-2.8,1.8-5.9,3.5-7.9,6-2.4,3-4.6,6.3-7.4,8.9s-11.6,6.7-15.5,3.9c-1.6-1.1-1.1-8.5-4.3-6.7-2.8,1.5-.9,7.7-5.5,8.5-4.4.8-7.3-6.7-9.5-9.3-3.1-3.7-7.4-6.1-10.3-10-3-4.1-4.7-9.4-6.9-13.9-1.9-4-4.3-8.5-5.6-12.7-1.1-3.6-1.5-10-.5-13.6s4.9-3.9,6.7-6.9c2.1-3.5,1.6-8.9,1.8-12.9s1.9-6.2,4.8-8.8,5.8-4.9,8.6-7.5c2.4-2.2,5.7-7.6,9.4-4.6,2.1,1.6,3.3,8.5,5.7,3.2,1.2-2.6.7-5.5,1.7-8.1,2.6-6.4,8.4,1.4,11.9-3.6,2.3-3.2.9-3.4-1.7-5.3s-3.9-5.1-4.8-8.1c-.2-.9-1.4-2.6-.7-3.6s2.2-.6,3-1.4c4.9-5.3-5-9.8-5.8-14.2-.4-2.6,2.6-5.9,4.1-7.7a23.07,23.07,0,0,0,4.4-7.4c1-2.6,3.8-5.4,3.9-8.3.1-3.2-2.9-7-3.9-10.1-.8-2.5.2-7.1-1.2-9.2s-5.9-3.2-7.7-4.6a14.2,14.2,0,0,1-4.9-6.9c-1.2-3.9.1-4,3-6.3,3.8-2.9.9-4-1.4-7.1-2.1-2.9-3.3-6.7-4.6-10-1.1-2.6-2.7-5.2-1.9-8.2.8-3.2,4.6-5.4,7-7.4,2.2-1.8,3.7-4.3,5.8-6.1,3.1-2.6,3.5.1,6.9.6,4.1.7,6.7-3.6,8.6-6.5a35.52,35.52,0,0,1,8.1-9.2c2.3-1.9,1.9-3.3,1.9-6.2.1-6.8,7.3-1.4,10.8-5.5,4.7-5.5,8.6-13.3,15-17.1,5.1-3,12.6-.3,17.1,2.5,6.5,4,12.9,4.8,20.7,5.5,3,.3,5.8.9,8.2-1.3,1.4-1.3,2.3-3.2,3.8-4.5s3.4-2.2,4.9-3.6a39.25,39.25,0,0,0,7.7-10.9c1.3-2.6,3.1-5.2,4.1-7.9,1.2-3.3-.2-4.4-1.4-7.5-2.6-6.8,1.4-14.3,4.7-19.9,3.5-5.9,2-12.9,6.3-18.5,4.2-5.4,13.8-.8,19.8-3.2,5.8-2.4,11.7-7.4,13.5-13.5,1.2-4,.1-14.6,5.5-15.7,4.9-1,12,6.5,16,8.8a9.36,9.36,0,0,0,9.3-.1c2.9-1.7,3.5-4.4.3-6.3-2.9-1.7-6.8-1.1-9.8-2.5a36.64,36.64,0,0,1-7.1-5.1c-4.8-4-12.1-4.4-18.3-4.6-3.3-.1-6.4.2-9.6-.6-2.3-.6-6.5-1-8.2-2.7-4.5-4.4,1-11.8,2-16.2a24.2,24.2,0,0,0,.5-8.9c-1-5.1-3.5-9.3-2.8-14.7.7-5.1,3.9-9,8-12,7.1-5,10.9-11.1,13.5-19.2,2.3-7.3,3.8-14.9,5.7-22.3.7-2.6,2-4.8,2.8-7.3,1.7-5.5-.6-11.6-3-16.4-1-1.9-2.8-4.3-3.4-6.4-.9-3.4.9-6.4,2.9-8.9,2.4-3.1,4.7-6.7,5.6-10.7.9-3.6,3.5-7.5,3.3-11.2-.2-3.9-4.5-5.8-7.4-8s-4.7-5.4-8-6.9c-2.5-1.1-6-1.4-7.7-3.9-1.1-1.6-1.8-5.2-2.5-7.1a10,10,0,0,1-.8-3.3c.3-1.9,1.2-1.2,2.2-2.5,2.4-3-.1-5.6-.8-9-1.2-5.7-.5-11.9.6-17.5a65.86,65.86,0,0,0,1-8.8,73.36,73.36,0,0,1,2.5-14c2.6-9.1,11.4-15,16.9-21.8,3.3-4.2,1.9-7.3,3.2-12,.9-3.5,3.3-4.8,6.3-6.6,3.9-2.3,9.2-9.5,13.8-6.5,1.7,1.1,3.5,5.4,6.3,3.5,4.3-2.9-1.6-6.3-1.7-8.3-.1-2.9,5.9-4.6,8.1-4.7,4-.2,3.2,4.4,6.1,3.8.1-2-.5-4.9.4-6.8,1.3-2.7,4.3-2.1,6.8-2.2,4.3-.2,3.5-2.3,6.6-4.4s4.9,1.9,5.3,4.7c.3,2.1-2.6,6.7-1.1,8.3,2.5,2.5,6.4-3.2,7.5-4.7.9-1.2,1.9-2.3,2.7-3.6.6-.9,1.2-3,1.9-3.6,3.3-2.7,7.7,3.6,9.8,5.5s5.4,4,5.5,7.1c.1,1.9-2.1,7.1,1.9,5.5,1.9-.7,3-4.6,5.7-2.2,2,1.8.2,5.2,4.1,4.9.1-1.7,0-3.5.1-5.1,1.8-1.1,4.7.4,6.3-.6,1.2-.7.8-5.4,3.5-3.3,2,1.6.7,4.6,3.1,5.9s5.3-.2,7.7,1.8c2,1.8,2.1,4.2,1.6,6.7-.4,2-1.6,5.8,2.4,4.3,3.6-1.3.8-5.6,4.7-6.3,2.4-.4,5.9.2,8.2.6,3.1.4,4.7,1.2,6.6,4.1,1.2,1.9,2.4,5.3,4.7,6.4s4.4.4,5.2-1.5c.6-1.3-.3-3.2,1-4.4,3.3-2.8,6,1,6.8,3.6.7,2.2.9,6.1,4.3,5.4,4.1-.8.6-7,2.6-8.7,1.7-1.4,7.1.5,8.7,1.1,2.3.8,4.5,3.4,6.5,2.2s1.4-4.2,2.2-6.1a7.8,7.8,0,0,1,6.2-4.4c5.2-.8,1.7,3.9,4.5,4.1a4,4,0,0,0,1.1,0c-.2-2.7.6-4,3.1-4.6,3.8-1.1,6.2-.4,8.5-4.4,1.1-1.9.6-2.2,2.8-3.3,3.7-1.8,9.2-1.4,13.2-1.4s8.8,1.4,12,3.9c2.7,2.1,2.6,5.1,5.8,6.6,2.6,1.2,7.4,2.4,10.2,1,1-.5,1.6-1.7,2.5-2.1,1.6-.8,3.7-.2,5.3-.6,4.7-1,7.5-4.1,10.3-7.6,4.1-5.1,9.4-7.8,15.4-9.2,3.1-.8,6-1.1,9-2.1,3.3-1,5.8-2.8,8.8-4.2,6.8-3.2,14.3-3,21.8-3a27.05,27.05,0,0,1,13.7,3.1c3.8,2,9,2,13.4,1.1a57.79,57.79,0,0,0,12.9-5.1c3.7-1.9,6.9-4.4,10.6-6.1,3.2-1.5,6.6-2.6,9.7-4.5,2-1.2,6-5,8.5-4.6,2.1.3,4.1,4.2,5.8,5.3,6.1,4,7.4-3.2,12.4-4.7,2.7-.9,3.9-1.1,5.8.8s2.8,3.9,5.1,4.8,5.3-.1,6.6,2.4c1,1.9-.9,6,.5,7.5,1.2,1.3,5.6.3,7.2.8a12.9,12.9,0,0,1,7.1,5.4c4.2,6.8,2.6,15.4,3.7,23.1.9,6.2.3,12.9.3,19.2s.5,12.6.5,19a98,98,0,0,1-.6,14.4c-.4,3.2-.8,7.5.3,10.6,2.6,7.2,8.7,12.9,13.3,18.7,1.5,1.9,3.3,4.7,2.7,7.2-.7,2.9-3.2,2.3-4.6,4.4-2.5,3.7,2.8,3,5,3.6s6.7,2.4,6.5,5.3c-.2,3.1-5.1,2.1-5,5.3s5.5,4.6,7.3,6.9c3.4,4.4,3.7,11.5,6.3,16.4,2.8,5.3,6.6,8.5,10.5,12.9C721,1441,725.2,1446.8,729.7,1450.3Z" transform="translate(0.3)"/><path id="path104" class="cls-3" d="M222.6,1417.5c.6,1.9-.4,2.3-1.7,3.4-3.1,2.8-4.8,7.5-7.1,11-2,3.2-1.9,7.6-.7,11.1s3.4,6.6,4.9,9.9c1.4,3.1,4.4,6.7,3.4,10.3-.4,1.6-1.7,2.8-2.1,4.4-.4,1.4,0,3.9-.8,5.1-2,3.1-5-3.2-5.9-4.5-2.2-3.5-5.1-6.6-7.2-10.2-1.4-2.4-2.7-4.9-4.3-7.3a22,22,0,0,1-3.2-5.8c-1.2-4.1,2.1-7.5,2.2-11.6,0-2.8-.2-5.8,0-8.6.1-2.6-.1-5.7.9-8.2a35.25,35.25,0,0,1,3.5-5.9c.8-1.1,1.9-3.2,3.6-2.6,1.2.4,1.5,1.9,2.8,2.4s3.1.1,4.6.5a8,8,0,0,1,3.7,1.8A16.9,16.9,0,0,1,222.6,1417.5Z" transform="translate(0.3)"/><path id="path106" class="cls-3" d="M213.6,1577.5h0c-.5,1.4-1.6,2.7-1.9,4a65.81,65.81,0,0,0-1.3,8.9c-.2,2,.1,4-.2,6-.2,1.1-.2,3.4-1.1,4.2-1.6,1.5-6.3,0-8.2-.1s-3.8-.2-5.5.8a19.91,19.91,0,0,0-3.6,2.7c-.8.8-1.7,2.3-3,2.4-1.7.1-2.5-1.9-2.9-3.3-1.2-4.2,0-8.9,1.2-12.9,1.3-4.5,1.8-9,4-13.2.7-1.4,1.3-2.2,2.9-2.4,2-.3,2.8.8,4.6,1.4s3.4-.5,5.2-1.1a17,17,0,0,1,5.5-.7c1.3,0,3-.3,4.1.4C214.8,1575.5,214.3,1576.5,213.6,1577.5Z" transform="translate(0.3)"/></g><g id="Brooklyn"><path id="path60" class="cls-4" d="M1428.6,1169.3c.4,3.3,5.5,10.1,3.4,13.1-.9,1.2-4.6,2.1-6.1,1.6-1.7-.6-2.1-3-4.1-2.4-.9.2-3.1,2.7-3.4,3.7-.8,2.6,2.1,3.2,3.8,4.6,2.8,2.1,4.3,6.9.2,8.6-1.8.7-2.4,0-4.1-.2s-3.2.6-4.6,1.6-2.5,2.9-4.1,3.8c-1.8.9-4.1.9-5.9,1.6-1,.4-3.6,1.8-3.1,3.2.4,1.1,3.7,1.6,4.7,2.2,3.2,1.7,1.4,4.7,2.4,7.3a9.74,9.74,0,0,0-2.4-.2c-.9,4.5,7.8,6.9,10.3,8.9,4.5,3.5,7.9,11.5,8.4,17.1.2,2.7-1.2,4.2-1.4,6.8s.3,5.3.3,7.9c0,2.9.4,7.2-1.4,9.6-1.6,2.2-5,3-7.4,3.5-2.9.6-4.3,1-6.6,2.8-2.5,1.9-2.9,2-4.6-1.1-2.4-4.2-.5-9-2.4-13.2-1.3-2.7-5.7-11-8.8-10.9,1.8,3.9,5.3,8.1,5.5,12.3.2,5.2-2.9,7.3-6.9,9.9-1.7,1.1-3.3,2.8-5.4,2.5-2.7-.3-3.8-3.2-5.3-5.2-2.2-3.2-7.6-9-12-8.2-.7,4,2.5,9.1,4,12.6,2.4,5.6,5.2,8.8,9.3,13.1,3.1,3.2,8.7,6.8,9.6,11.5,1.1,6.6-10.4,9.1-14.1,12.8-1.5,1.5-3.2,7.8-4.9,8.2-1.4.3-7-5.7-8.2-6.9a122.2,122.2,0,0,0-14.8-12.3,28.74,28.74,0,0,0,5.4,9.3c2.3,2.5,6.7,4.3,7.8,7.5,1.4,3.9.4,8.4-4.1,6.9-4.7-1.6-5-5.5-9.3-1.1a29,29,0,0,0-8.3,15.2c-.2,1.1-.1,4.8-1.3,5.5-1.7,1-3.6-1.8-3.9-1.6-2.2,1.2-3.6,4.4-5.5,6.1-2.6,2.3-5.8,11.4-8.9,11.5-3.8.1-5.8-5-8.4.1-1.5,2.9.2,7.9.2,11.1,0,4-.5,8.1-5.3,9.4-5,1.3-4.7-2.8-7-5.8-2.5-3.3-7.3-4.9-11.2-2.8-4.2,2.3-2.1,5.4-.1,9.1a218.48,218.48,0,0,0,13.7,22.8c4.7,6.6,7.8,13.8,12.3,20.4,3.7,5.3,9.7,12-1.2,12-4.1,0-7.8-.4-11.5,1.2-4.2,1.7-7.2,5.2-10.9,7.8-3.2,2.3-8.4,3.3-10.9,6.7-2.2,3-1.5,7.6,2.8,7.8,3.3.3,6.8-3.8,10.7-4.1,6.9-.6,14,0,20.9,0,4.2,0,10.8-.7,13.6,2.5,3.9,4.4,2.8,11.9,4.4,17.2,2.1,7,5.8,13.4,8.4,20.3,4,10.2,6.3,21.2,10.6,31.6a165.81,165.81,0,0,1,5.9,16.2c1.4,4.6,3.8,8.9,3.3,13.9-.7,7.2-11.2,8.9-17.4,11.3-10.1,3.8-20.4,4.9-30.5,9-7.2,3-17,12.2-23.5,5.9-2.7-2.6-4.3-5.8-6.9-8.4-3.3-3.4-7.6-4.7-11.9-6.5-3.2-1.4-12.5-4.3-10.4-9.5,1.5-3.9,7.2-1.8,9.5-.2,3.5,2.5,4,6.3,8.6,7.2,3.4.7,7.2.1,9-3,5.3-9.4-5-13.1-8.2-19.6-1.7-3.5.3-10.5-4-11.6-3.6-.9-5.9,3.2-8.6,4.9-10.3,6.5-8.6-8.5-16.4-6.5-.1,3.4,5.4,4.3,4.4,8.1-3.7.9-4.9,1.9-7.6,4.7-2.5,2.5-5.7,4.8-8.9,2-1.4-1.2-2.6-7.8-6.1-4.6-2,1.8.2,7.1,1.2,8.7,3.3,5.3,9.9,6.8,4.9,13.9-5.4,7.7-8.2-2.2-14.3-1.1-.1,2.1,0,4.4-.1,6.5-4,.6-7-2-10.3-3.7-5-2.6-10.1-5.4-15.2-7.7-8.6-3.9-20-12-28.1-4.7-7.8,6.9-16.8,7.5-27.1,7.5-2.6,0-17.9,1.1-9.6,3.3,5,1.3,12.3,0,17.5,0,4.8,0,8-.2,10.2,4.4a35.76,35.76,0,0,1,2.9,12c.3,6.4-10,18.2-11.2,7.5-8.7-.5-18.4,1.8-27,3.3-7.6,1.3-15.3,3-23,4.1-6.6.9-13.3.5-20,.4-5.9-.1-11.5,2-17.3,3.1-13.1,2.5-26.3,4-39.5,6.3-9.4,1.6-18.9,2.2-28.1,5-8.9,2.7-16.7,6.7-26,8-14.9,2.2-29.6,3.6-44.8,3-5.5-.2-10.9-1-15.8-3.8-3.8-2.3-5.9-6.3-9.8-8.6-5.3-3.3-10.6-3-16.6-4-3.9-.7-7.4-.9-8.2-5.4-.3-1.8.9-3.8.4-5.8s-2-3.2-2.9-4.9c-1.8-3.7-1.1-6.2,1.6-9.3a29.38,29.38,0,0,1,11.1-7.6c3.7-1.4,7.6-.1,10.3-3,1.4-1.5.2-2.8,2.5-4a5.93,5.93,0,0,1,5.5.3c.8.6,0,2.6,1.1,3.4.9.6,3.2.8,4.2.9,2.2.2,4.5-.1,6.7.1,5,.5,10.7.9,15.6,2.5,3.8,1.3,6.9,3.7,10.7,4.8,1.9.6,5.3,1.6,7.4.8,1.6-.6,1.8-2.1,2.8-2.6,4.8-2.3,5.8,4.1,10.4,2.9.5-6.5-4.1-7.1-8.3-10.1-3.4-2.4-4-12-6.5-12.5-1.9-.4-5.7,2.3-8.2,2.5-5.8.3-11.6-.4-16.1-3.7-3.4-2.5-8.7-7.6-7.8-12.4.9-5,7.6-5.3,11.5-6.2.8-3.9-3.4-6-2.4-9.8,1.1-4.2,6.6-4.9,5.7-10.7-2.9-.3-9.6,5.1-11.4.4-1.6-4.1,5-4.1,5.7-7,1.5-6.6-13.2-10.4-13.3-.5-6.5-1.6-12.2-12.4-16-17.3-14.1-17.9-36.1-19.3-56.8-23.7-5.6-1.2-11.6-1.4-17-3.9-3.9-1.8-7.2-4.7-11-6.5s-7-4.7-10.5-6.5c-4.8-2.5-5.6.1-5.7,4.4-3-1.2-2.4-4.6-2.4-7.4a19.3,19.3,0,0,0-2.2-10c-3.4-6.6-6.2-13.2-9.1-20.2-5.1-12.2-11.4-25.2-11.8-38.7-.2-7,0-14.1,0-21.1,0-6.5-.2-12.8,1.9-19,2.5-7.2,6.3-13.9,9.5-20.8,3.3-7.1,4.4-14.5,8.7-21.1,4-6.2,5-13.8,9.7-19.7,2.5-3.1,4-3.7,7.7-3.6,1.4,0,11.9,3.8,11.9,3.9,1.3-8.4-10.4-6.5-11.1-14.4a11.4,11.4,0,0,1,2.9-8.1c3.7-3.8,6.3-3.5,9.4-.1,2.4,2.6,4.3,6.2,8.7,4.9s1.8-3.1,1.3-6.6c-.4-2.7-.9-8.1,2.4-9.4,2.7-1.1,6.4,3.5,8.7,1.6,3.7-3.1-3.3-7.7-5.3-8.6-4.6-2-5.3-2.5-2.1-7.5,4.3-6.7,10.9-12.2,16.8-17.6,1.7-1.6,5.7-8,8-7.4,2.9.8,1.2,8.8,6.2,5.5,3.1-2.1.2-7.2,5-3.8s4.6,6.7,11.8,4.9c.4-7.9-3.5-7.1-9.4-10.8-6.1-3.8-1.4-7.8,2.9-11.1,5.2-4,12-7.1,17.4-3.2,4.1,3,6.6,8.2,12.6,5.7,5.1-2.1,0-2.7-1.5-6.2-1.6-3.7,1-6.7,4.4-4.4,2.9,1.9,3,6.8,7.1,6.9,3.3.1,7.2-3.7,5.4-7s-9.3-2.7-7.9-8.2c.8-3.1,2.3-2.1,4.6-1.8,2.9.5,7.8,2.6,10.4.3a6.33,6.33,0,0,0,1.3-5.3c-.5-1.4-5-3.5-5-2.8-.6-3.9,2.2-7.8,1.9-12.2-4.8,2.1-4.4,9-9.5,11-5.3,2.1-8.9,1.3-12.4,7-.7,1.2-1.7,6.5-4,5-1.5-1,0-5.4.4-6.5,1.8-4.9,6.8-8.9,3.7-14.4-2.1-.1-2.9,1.6-4.2,3.2-2.5,3.1-3.7,6.7-6.1,9.9-2.6,3.6-7,5.9-10.3,8.6-4.5,3.7-11.2,11.2-17.7,9.4-3.3-.9-6.1-4.2-7.8-7-2.3-3.6-1.2-5.4-.8-9.4a19.78,19.78,0,0,0-2.4-10.8c-1.5-2.8-5.5-5.8-4.6-9.3,6.3-1.1,10.4,6,11.1,11.1.7,5.6-1.6,11.9,5.3,14.4,9.4,3.4,12.1-5.1,11-12.8-1.5-10.4-7.7-13.1-15.6-19-3.6-2.7-7.6-4.6-11-7.4-6.3-5.2-5.7-12.6-3.3-19.7,2.8-8.1,12.2-12.8,19.2-17.4,9.1-6.1,18.1-11.5,26.7-18.4s13.9-16.3,19.6-25.3c6.4-10.3,10.8-19.8,12-31.8.5-5.4,1.3-9.2,4.1-13.9,2.3-3.9,6-6.3,8.5-10,2-2.8,2.1-7.2,5.4-8.9,4.1-2.1,7.5.1,10.6,1.6,7.6,3.6,20.6,2.1,29,1.6,9.2-.6,19.3-6.2,25.4-13.1,1.6-1.8,4.1-8.8,6.2-9.2,2.9-.6,5.6,6.7,6.6,8.7,2.1,4.2,2.2,8.1,2.8,12.7.4,2.7,4.9,13.2,9.6,9,2.7-2.4-1.4-11.2-2.6-13.7-2.1-4.3-5-8-6.6-12.5a30.47,30.47,0,0,1-1.2-13.8c1.4-7.7,7.1-15.4,10.2-22.5,3.9-8.7,6.5-18,11.6-26.2,4.8-7.8,9.2-14.5,9.2-23.7,0-8.1-3.3-14.2-4.8-21.9a105.27,105.27,0,0,1-1.4-20c2.9-.3,6.5-3.1,9.1-4.1,3.8-1.5,7.1-2.5,10.5-4.9,7.6-5.2,16.3-8.5,25.4-5.1,7.6,2.9,14.7,8,21.8,12.1a52.68,52.68,0,0,1,8.7,5.8c2.8,2.4,4.5,6.5,6.4,9.7,3.2,5.4,6,11.3,9.9,16.2,1.8,2.4,4,3.3,6.7,4.4,3.4,1.4,6.7,3,10.3,3.5,2.7.4,5.5.4,8.1,1.2a22.61,22.61,0,0,1,11.1,7.9c6.1,7.8,8.8,18,11.3,27.4.3,1.2.6,2.4,1,3.6.6,2.2.3,3.5,0,5.6-.4,3.1,1,2.7,3,4a4,4,0,0,1,.9,5.3c-1.6,2.2-5.2,1.4-6.7,3.5a5.15,5.15,0,0,0,0,5.1c1.1,1.5,3.3,1.7,4.5,3.1,1.4,1.6,1.9,3.5,3.5,5,1.2,1.2,3.4,2.2,4.2,3.8s-.2,4,.4,5.8c.5,1.6,3.5,2.1,3.7,3.7.4,2.2-3.3,2.3-4.8,2.8-2.7,1.1-1.7,2.6.6,3.9,3.4,1.9,6.1,4.5,9.2,6.8,1.4,1,2.6,2.1,3.9,3.2,1.9,1.6,4,.9,6,1.9,1.5.7,3.2,2.9,4.5,4.1,2,1.8,3.1,3.8,4.8,6,2.6,3.5,3.7,2.7,7.6,2.9.9,3.5-5.6,2.8-7,4-2.2,2.1,1.6,3.5,3.3,3.8s3.8-.1,5.2.9c.8.5,2.5,2.8,2.5,3.7-.1,1.7-3.1,2.2-4.4,3.3-1,.8-3.6,2.1-3.3,3.2.7,2.2,7.6,2.7,9.6,3.5,2.7,1.1,4,3.2,6,5.1,3.6,3.5,8.7,5.5,12.2,9.1,3.7,3.8-7.4,4.8-6.3,9.6,2.3,1.3,5.1,1.8,7.5,3.1,1.9,1.1,3.8,2.1,5.7,3.1a24.19,24.19,0,0,1,4.2,3.6c2.5,2.5.4,1.6-1.2,3.2s-.1,3.8,1.4,4.9c1.9,1.5,2.5,1.8,3.1,4.1s.6,2.3-.9,4.1-1.5,2.6.3,3.8c.9.6,2.5.7,3.1,1.6s.2,1.8.4,2.7a23.88,23.88,0,0,0,3,6.5c1.6,2.2,3.9,3.7,5.4,5.9,1.3,1.8,2,3.8,3.1,5.5,3.6.4,3.4-5.5,4.3-7.6.6-1.3,1.8-1.8,2.7-2.9s1.1-2.9,2.4-3.1a48.46,48.46,0,0,0,3.3,8.2c.6,1.1.8,2.4,2.2,1.9s2.7-3.7,4.2-4.6c1.9-1.2,4-1.7,6.1-2.6,3-1.2,3.4-3.3,5.3-5.6,2.2-2.7,5.3-4.6,8.2-6.5a49,49,0,0,0,7.4-6.1c1.9-1.7,4.2-3,6.2-4.5,4.4-3.2,6.8-7.7,10.6-11.6a55.84,55.84,0,0,1,9.8-7.6c4.1-2.7,9.5-3.7,14.1-5.2,2.3-.8,5.4-2.7,7.9-2.6,3.8.1,3.5,3.4,3.5,6.4a72.29,72.29,0,0,0,.3,10.4c.7,4.4,2.6,8.7,3.5,13.2,1.1,5.2,1.4,10.5,2.9,15.7,1.3,4.6,1.6,9,2.2,13.7a9.16,9.16,0,0,0,.9,3.7c.8,1.1.7.8,2.2.9,2.2.2,3.8-.5,4.9,1.8.8,1.6.5,3.9.5,5.8,0,2.9.6,2.2,2.7,3.1,4.4,1.8,4.1,8.7,4.4,12.6a23.48,23.48,0,0,0,2,8.6c1.6,3.5,2.1,8,2.4,11.8.2,2.4,1.3,7.9,4.4,4.2,1.1-1.2,1.8-3.8,3.2-4.6,2.3-1.2,2.7,1.6,2.8,3.4.1,2.4-.9,4.1-.9,6.4a16.11,16.11,0,0,0,1.9,6.1,43.43,43.43,0,0,1,2.6,5.3A51.79,51.79,0,0,1,1428.6,1169.3Z" transform="translate(0.3)"/><path id="path62" class="cls-4" d="M1409.6,1532.4c1.6,3.1,1,5.2-.4,8.3-2.7,6.4-7.4,11.4-10.8,17.3-2,3.5-3.8,7.1-5.8,10.5-1.7,3-3.6,8.2-7.8,7.6-.9-5-1-11.1-3.8-15.4-1.3-2-4.1-3.7-3.9-6.2.2-2,1.6-2.3,2.9-3.5,2.8-2.6,4.7-6.3,6.8-9.4,2.4-3.4,8.6-7.7,5.9-12.6-.6-1.2-4.4,4.6-4.7,4.9-2.3,2.4-5.4.4-8.1,2.3-1.2.9-1.7,2.9-3.6,2.9s-1.3-3-1.3-4.6c0-4.8-5.8-8.2-5.1-12.8.4-2.7,3.6-4.3,5.8-5.8,2.9-2.1,4.6-4.8,7.2-7.1,3-2.6,7.4,1.8,10.4,3.4,5.1,2.6,9.6,5.4,12.4,10.6C1407.4,1525.8,1408,1529.3,1409.6,1532.4Z" transform="translate(0.3)"/><path id="path64" class="cls-4" d="M1401.4,1426.1a4.63,4.63,0,0,1,1.9,4.8c-.5,3.1-2.1,2.9-4.2,4.3s-1.1,4.8-2.4,5.8c-3.7,2.8-2.9-9.1-2.7-10.5.3-2,1.8-3.1,2.2-5.1.2-1,.2-3.3,1.6-3.6C1399.5,1421.4,1400.2,1425.2,1401.4,1426.1Z" transform="translate(0.3)"/><path id="path66" class="cls-4" d="M1398.1,1349.7c.9,2.5.8,5.6.6,8.3-.2,3.5-1.7,5.9-2.4,9.1-1.3,5.7,2.3,15.6-1.8,20.2-1.7,1.9-4.1,2.6-6.3,3.6-3.2,1.5-6.5,2.9-9.8,4.2-4.2,1.7-8.4,3.1-12.6,4.6-3.2,1.2-5.6,3.2-8.5,4.9-2.3,1.3-4.9,2.1-7.5.8-2.8-1.4-2.3-3.9-1.6-6.5,2-6.9,3.9-14,6.7-20.6,1.3-3.1,2.1-6.6,3.6-9.5,1.7-3.3,5.2-6.2,8-8.5,4.5-3.7,9.4-6.9,14.1-10.3,2-1.4,3.8-3.3,5.8-4.6C1391.8,1341.7,1395.9,1343.5,1398.1,1349.7Z" transform="translate(0.3)"/><path id="path68" class="cls-4" d="M1392.7,1450.6c1.3.3,5.3,4.1,4.6,5.7-.6,1.3-1.9,1.5-2.4,2.9-.7,1.9.3,2.9-2.1,3.1-2.1.2-9.3-1.8-6.2-4.8.6-.6,1.6-.2,2-.8.6-.8,0-1.8.2-2.7C1389.3,1452.6,1390.8,1450.2,1392.7,1450.6Z" transform="translate(0.3)"/><path id="path70" class="cls-4" d="M1388.8,1429.6a6.28,6.28,0,0,1,.7,6.6c-.6,1.4-1.6,2.5-2,4-.3,1.3.1,3-1.1,4.1-2.2,1.9-3.6-.3-3.9-2.4s-1-5.9-2.6-7.6a18.79,18.79,0,0,0-3.1-4.8c-2.7-3-3.7-4.6-2.7-8.3,1.1-4,0-8.6,1.1-12.6,1.2-4.2,4.2,1.6,5.3,3.1s3.5,3.4,3.9,5.3c.7,3.2-2.1,1.9-3.1,3.5C1379.4,1423.4,1387.5,1427.8,1388.8,1429.6Z" transform="translate(0.3)"/><path id="path72" class="cls-4" d="M1388.8,1486c.1,2.4-.2,6.9-2.9,7.1-5.6.3-8.6-10.3-8.4-14.3a48,48,0,0,0-.3-8.5c-.2-1.9-.6-5.8.8-7.3,2-2.3,3.4.1,3.6,2.1.7,5.6-.7,10.9,3.3,15.7C1386.7,1482.8,1388.7,1483.2,1388.8,1486Z" transform="translate(0.3)"/><path id="path46" class="cls-4" d="M1500.7,1320c2.3,1.6,4.8,5.5,3.7,8.4-1.3,3.4-4.5,5.6-6.9,8.2-2.8,3.2-4.3,6.7-6.1,10.4-1.3,2.6-3.5,17.4-8.7,11.9-1.6-1.7-2.1-5.2-3.1-7.3-1.4-2.7-2.6-5.3-4.1-7.8-1.4-2.2-5.2-4.8-5.7-7.3-.5-2.2,1.8-3.2,3.5-4,3.6-1.8,6.9-4.1,10.4-6.2,2.5-1.6,5.3-2.6,7.8-4.3S1497.6,1318,1500.7,1320Z" transform="translate(0.3)"/><path id="path48" class="cls-4" d="M1490.2,1415.2c2.5-.2,5.1.4,4.9,3.1-.1,2.3-1.6,4.4-2.3,6.6-1.2,3.8-2.7,8.6-3.1,12.6-.4,4.5,2.4,10.1-.9,14-3.8,4.6-11.1,5.1-14.8,9.9-1.7,2.3-3.6,4.6-6.8,4.7-2.7,0-3.9-1.9-5.5-3.9a45.08,45.08,0,0,0-4.7-5.9c-2.2-2.1-4.7-3.8-6.2-6.6-1.2-2.2-.8-3.2.7-4.8,1.2-1.2,2.5-2.6,3.9-3.8a28.42,28.42,0,0,1,5-3.2c2.1-1,3-1.6,1.2-3.5-.6-.6-1.5-.7-1.9-1.5s0-2.6,0-3.4a34.56,34.56,0,0,1,.2-5.6c1-4.9,2.7-9.8,3.5-14.7.5-3.2-.9-7.1.7-10.1a8.08,8.08,0,0,1,7.3-4.6c2.5.1,6.9.5,8.5,2.8,2.4,3.5-2.9,3.4-4.5,4.5a6.34,6.34,0,0,0-1.6,8.4c2,2.7,4,5.6,6.7,7.5C1484.6,1420.4,1486.5,1415.4,1490.2,1415.2Z" transform="translate(0.3)"/><path id="path50" class="cls-4" d="M1474.8,1366.5c1.6,1.6,2.5,2.5,1.3,4.8-3.5,6.5-13.4,3.4-19.1,5.2-7,2.3-14.2,3.8-21.2,6.1-4.7,1.6-9,4.1-13.4,6.4-3.7,1.8-5.3,4-8,6.7-3.2,3.2-7.8,2.5-11.6.6-2.3-1.2-3-2.2-2.7-4.9.2-1.6.6-3.4,2.6-3.1.5,1.3,2.8,4.1,4.4,3.3.8-.4.8-1.8,1.4-2.5s1.2-.7,1.9-1c.9-.3,1.6.2,2.2-.8.4-.7.1-2.7.1-3.4,0-2.8.2-5.7,0-8.4-.2-2.5-.8-4.7-3.5-5.1-1.8-.3-3.6.9-4.8-.6-.9-1.1-1.6-5-1.6-6.6,0-2.1.9-4.7,2.6-5.9,4-2.6,6.7,1.4,9.7,3.1,2.2,1.2,2.8.5,3.5-1.8.8-2.5,1.7-4.6,3.9-6.2,1.5-1.1,3.5-1.9,4.8-3.5s1.2-3.7,2.8-5c4.4-3.2,3.3,5.4,7.2,4.5.1-1.9-.3-5.6,2.7-5.1,1.6.3,1.1,1.8,2.2,2.7,3.4,3,9.2-1,11.4-3.5,1-1.1,2.2-4.1,3.7-4.6,3-.9,6,6.9,4.6,9-.9,1.4-3.4,1.5-4.5,2.9s-1.4,3.2-2,4.8-1.5,3.8,1.2,2.7c1.6-.6,2.2-2.6,4.1-3.1,3.9-1.1,8.6,5.2,10.8,7.9A26.59,26.59,0,0,0,1474.8,1366.5Z" transform="translate(0.3)"/><path id="path52" class="cls-4" d="M1473.4,1302.1a7.9,7.9,0,0,1,1.8,6.3c-.7,7.1-5.6,9.4-9.7,14.4-3.4,4.2-4.7,10.7-10.6,11.9-4.6,1-9.5,0-14.1.4-4.2.3-16.2,4.3-18-.4-1.9-5,.7-12.7,3.8-16.6a65.86,65.86,0,0,1,11.2-11.8c4.3-3.4,9.3-6.1,13.9-9,3.9-2.5,11.7-4.3,15.7-1.6A45.12,45.12,0,0,1,1473.4,1302.1Z" transform="translate(0.3)"/><path id="path54" class="cls-4" d="M1455,1411.2c.9,1.7,1.9,4.1,1.6,6.2-.6,3-1.7,5.8-2,8.9-.2,2.3-.4,5.3-1.4,7.2-2.5,4.7-8.1,6.9-10.3,11.9-1.2,2.8-2.2,7-4,9.3-1.4,1.9-3.4.5-5.1-.8-3.4-2.8-2.2-8.2-4.4-11.9-2.3-4-6.7-7.4-8.4-11.6-1.4-3.3,3.4-6.6,3.7-10.1.2-2.3-.1-3.3,2-4.5,1.8-1,3.6-.7,4-3,.5-3.4-4.8-5.1-5.7-8.5-.5-1.8-.7-5.4,2.1-5.1,2.4.3,2.6,3.8,3.8,5.4,1.4,1.8,3.8.9,5.3,2.3,2,1.9.4,3.3-1.1,4.1-1.8,1-2.4,1.4-1.9,3.8.7,2.8,2.4,3.4,5,4.5,2,.8,4.8,1.7,7,.8,2.6-1.1.2-2.2-1.3-3.7-2.1-2-3-3.7-.4-6C1446.8,1407.3,1452.7,1406.9,1455,1411.2Z" transform="translate(0.3)"/><path id="path56" class="cls-4" d="M1448.2,1477.8c1.8,3,.1,8.1-2.2,10.1-2.7,2.3-6.1,3.5-9,5.6-2.5,1.8-5,5-8.2,4.9-5.5-.2-7.3-6.4-11.1-9.8a44.31,44.31,0,0,0-9.8-7.4c-2.6-1.3-8.7-2.5-8.2-6.5.3-2.5,3.3-4,5.1-5.2,1.6-1.1,2.9-2.3,4.4-3.5,4.7-3.8,7.8-3.2,12.9-.6,4,2.1,8.3,3.5,12.5,5.3,2.3,1,4.4,2,6.6,3.2C1443.1,1474.9,1447,1476,1448.2,1477.8Z" transform="translate(0.3)"/></g><g id="Manhattan"><path id="path82" class="cls-3" d="M1230.2,212.1c1.8,7.6-1.1,19.4-5.8,25.5a20.07,20.07,0,0,1-7.9,5.9c-2.2.9-5.3,1.1-6.9,2.9,2.5,1.2,4.2,2,3.8,5-.3,2.6-2,3-3.6,4.9-2.2,2.4-4.2,5-6.6,7.2-1.6,1.5-3,4.5-4.8,5.6-2.1,1.3-2.9-1.6-5,.1-2,1.5-2.3,6.9-3,9.2-3.6,12.4-10.9,22.7-17.3,33.8-2.1,3.7-3.4,7.8-5.3,11.6a96.92,96.92,0,0,0-5.6,12.3c-1.3,3.6-3.6,6.2-5.2,9.6-1.2,2.6-1.5,6.2-2,9.1v.2c-1.1,6.5-3.5,12.7-6.1,18.9a48.1,48.1,0,0,0-4.4,17.9c-.2,5.7-.6,11.6,0,17.3,1.1,10.1,3.6,19.9,4.4,30,.7,9.2-.7,18.3-1.6,27.4-.5,5.1-.3,10.3-.3,15.4v22.4c0,3.8-.2,5.8,2.5,8.6,2.4,2.6,5,4.7,7.2,7.6,4.5,5.9,9.3,12.1,10.8,19.4,1.1,5.2.5,11,.5,16.4,0,4.5.8,9.4-1.9,13.2-2.5,3.6-6.3,5.7-9.7,8.4-4.4,3.6-9.4,6.7-13.3,10.9-3.1,3.3-4,7.5-5.7,11.5a33,33,0,0,1-5,9c-4.9,6.2-15.1,10.7-16.4,19.2-.5,3.1.7,6,1.9,8.7,1.4,3.1,2.1,6.3,3.2,9.5.9,2.5,3.4,6.1,3.4,8.7,0,3.1-4.4,5.9-6.2,8.1-2.9,3.5-5.6,7-8.8,10.2-7.6,7.5-12.7,16.5-18,25.6a163.6,163.6,0,0,1-9.8,15.2c-8.1,11-17.3,21.3-25.4,32.4-6.5,9-12.2,18.6-18.3,27.8-5.5,8.2-12.5,15.3-16.2,24.5-1.6,4-3.8,7.8-3.8,12.1-.1,4.6,1.6,9.2-1.1,13a7.18,7.18,0,0,0-1.6,5.7c.3,4.5,3.5,6.7,4.4,10.5,1.8,7.7-6.7,3.3-9,6.9-2.9,4.6,6.4,6.1,8.1,7.4-2,2-6.8.4-9.1,2.8s.7,4.3,2.8,6.1c5.9,5.2,9.4,10.9,8.6,18.8-.4,4.3-1.3,8.4-1.9,12.7a44.25,44.25,0,0,1-1.4,6.9s-.9.6-1.1,1.1.1,1.4,0,1.9c-1.5,10.3-2.1,21.1-6,30.8-2,5-4.4,9.9-6.3,14.8a20.2,20.2,0,0,1-6.7,9.5,26.32,26.32,0,0,1-9.1,4.7c-3.8,1.2-7.3,2.9-11.3,2.9a48.84,48.84,0,0,0-13,2c-2.9.8-6,4.7-9.3,3.4s-1.8-4.2-2-6.8,0-2.2-2.5-2.5a21.72,21.72,0,0,0-4.4.3,49.12,49.12,0,0,0-13.7,2.8c-4.4,1.7-8.2,4.5-12.5,6.4-2.9,1.3-5.3,2.4-4.6,6.2.5,2.7,2.6,4.2,1.7,7.2-2.5,7.9-10.4,13.7-16.4,18.9-8.8,7.5-5.3-6.9-11.7-5.2-7,1.9,5.9,11-1.9,12.1-4.4.6-2.9-1.3-4.4-3.9-1.9-3.1-5.6-.6-7.2,1.4-2.1,2.6-3,3.6-6.8,3.2a13.56,13.56,0,0,1-7.4-3.8,13.06,13.06,0,0,1-3.2-4.8c-.9-2-2.9-4.6-3.4-6.6-1-4.2,2.6-3.2,3.9-5.8,1.6-3.5-2-4-4.2-3.5-2.4.5-6.8,2-8.2-.9-1-2.1.9-7,1.4-9,1.1-4.6,2.3-8.9,3.1-13.5.7-4.1,2.3-7.8,3-11.9a122.33,122.33,0,0,0,1.6-15.9c.6-12.9,5.2-25.4,6.6-38.1.3-2.6.1-8.4,1.4-10.6,1.5-2.5,7.3-2.8,10.1-3.3s5-.9,1.9-3.3c-2.7-2-14.7-3.8-10.2-8.9,1.2-1.3,4-2.4,4.5-4.6.8-3.6-2.2-1.5-3.9-3.1-4.1-3.8,9.6-4,11.2-4.5,1.6-5.9-8.8-2.4-9.9-6.5-.8-3.2,2.3-7.6,3-10.5.9-3.3.8-4.1,4.7-4.9,1.8-.4,6.7-.6,5.2-3.7-1.2-2.6-5.6-2-7.7-2.4-2.9-.5-3.3-2.4-.6-3.9,2.1-1.1,4.8-.5,3.9-4.1-.5-1.8-2.3-3.8-3.7-5.1-2.1-2.1-2.4-2.5-1.4-5.6a22.08,22.08,0,0,0,1.5-8.5c-.4-7.3.1-13.6,5.7-19,3.3-3.2,7.5-4.5,3.8-9.8-2.4-3.4-7.4-4.5-4-10,2.3-3.7,4.8-7.5,4.6-12.3,2.8.1,1.9,2.8,3.3,4.1,1.8,1.6,4.1-.2,5.2-1.9,1-1.5,1.8-4.4.9-6.2-.8-1.5-2.8-2-3.2-3.9-.2-1.1.7-3.7,1-4.8,1-3.7,3.3-6.9,5.4-10,.9-1.3,1.3-2.3,2.5-3.2.9-.6,2.8-.6,3.3-1.1,3.3-2.7-1.6-2.3-3.3-3.3-1.8-6.5,12.7-.9,11.2-6-1.4-1.3-3.7-1-4.1-3.3a3.92,3.92,0,0,1,3.3-4.1c1.5-.2,4.6,1.9,4.9-.6.2-1.7-2.5-2.6-3.8-2.8-1.2-5,6.2-.5,7.9-.8.6-2.4-2.1-1.7-3-3.2-.7-1.2,0-3.4.1-4.6,1,.8,8.1,4.7,8,1-.1-2.5-4.5-2-5.4-4-1.3-3.4,3.1-.6,4.8-1.4,3.4-1.7-2-1.9-2.5-3.3-1-2.7,3.6-2.6,4.7-3.7,2.5-2.3-.6-3-1.2-5.4s1.1-3.6,2.6-5.4c2.5-3,2.7-12.2,7.9-11.3.2,1.1.7,3.5,1.6,4.1a2.17,2.17,0,0,0,3.6-1.6c.4-3.3-4-5.2-1.6-8.8,1-1.4,2.5-2.1,3.5-3.9a17.94,17.94,0,0,1,2-3.9c2-2.3,7.6-2.9,5.6-6.9-.9-1.8-4.7-1.9-5-3.3-.7-2.6,4.2-1.9,5.5-1.9,2.5,0,4,.3,5.7-1.4s2.8-4.7,4-6.9c3.4-6.2,7.5-12.2,10.6-18.7,1.7-3.5,2.8-7.3,4.6-10.7,2.2-4,5.3-6.3,7.8-9.8,2.3-3.3,3.6-7.3,5.7-10.7,3.7-6.3,6.7-12.9,10.3-19.3,2.8-4.9,5.3-9.3,7.1-14.6.8-2.5,1.2-4.9,2.2-7.4,3.7-9,9.9-17.4,15-25.7,3.8-6.1,6.9-12.6,10.2-18.9,2.1-4.1,3.4-8.7,5.4-12.9,1.8-3.8,4.4-7.1,6.5-10.7,1.1-1.9,4.8-6.3,4.6-8.6-.1-2.6-3.8-2.4-3-4.7s5.4-2.4,6.8-4.3c1.7-2.3,1.2-5.9,4.2-7.4,1-.5,2.2.1,3.2-.3,1.2-.5,1.8-1.9,2.4-3,5.4-9.1,12.1-17.5,18-26.4,5.7-8.6,9.7-18.7,13.4-28.2,3.5-9.2,5.3-18.7,8.2-28,2.2-7,7.8-14.4,8.2-21.8.4-6.8-4.3-10.7-6.5-16.9a11.33,11.33,0,0,1,1.7-10.8c2.1-2.9,4.1-3.5,6.8-5.3,4.9-3.1,8-9.2,11-14,6.3-10.3,11.7-21,17.8-31.3a247.62,247.62,0,0,0,12.4-24,51.86,51.86,0,0,0,4.9-21.9c0-3.1-.4-6.7.3-9.6.8-3.4,3.6-7,5.8-9.6,2.6-3.3,5.7-6.2,8.4-9.3,1.9-2.1,3.3-3.9,6.4-3.6,6.1.4,9.9,5.6,10.1,11.2.1,3.4.2,6.9,2.8,9.4,1.8,1.7,6.6,3.6,8.7,1.4,2-2-.1-5.4,2.8-6.6,3.3-1.3,8,1.8,10.9,3C1218.3,204,1228.7,205.7,1230.2,212.1Z" transform="translate(0.3)"/><path id="path84" class="cls-3" d="M1216.7,559c-4.1,3.9,5.1,11.9,4.6,16-.7,6-10.6,10.9-14.3,14.9-5.6,6.1-11.6,13.3-13.3,21.3-.8,4.1-.1,9-2.5,12.4-2.1,3-5.4,5.9-7.8,8.7s-6.3,5.6-10.2,5.6a7.07,7.07,0,0,1-3.4-.8c-1.2-.6-2.2-2.7-3.4-3.5-1.9-1.5-4.2-2.2-6.4-3.2-5.2-2.3-19.8-7.6-17.5-15.5,1-3.1,2.9-5.3,3.7-8.6,1.1-4.1,2.4-4.9,6.1-7a42.68,42.68,0,0,0,16.3-15.8c2.5-4,4.8-7.7,5.3-12.6.4-4.7-.2-9.4,0-14,.4-7.6,7.5-12.8,2.5-20.1l16.5-1.4Z" transform="translate(0.3)"/><path id="path86" class="cls-3" d="M1142.6,636.7c1.1,3.4-3.5,5.1-5.3,7.5-1.1,1.4-1.9,4.9-4.4,4.7-2.1-.1-2.4-3.3-2.9-4.9-1.1-3.5-1-9.8,2.8-11.8C1135.9,630.6,1141.5,633.4,1142.6,636.7Z" transform="translate(0.3)"/><path id="path90" class="cls-3" d="M1131.3,666.3a14.92,14.92,0,0,1,.2,2.1,33.74,33.74,0,0,1-1.2,7.3c-1.7,6.8-6.8,11.2-10.5,16.9-10.6,16.4-18.9,34.2-30,50.2-6.1,8.8-14.5,15.9-20.7,24.7-3.4,4.8-9.3,15.3-16,14.7a19.36,19.36,0,0,1,1-8.7c1.4-3.5,3.6-6.5,4.8-10.1,2.6-7.6,8-14.4,12.8-21s10.2-13,15.1-19.8c5.6-7.6,10.8-15.6,16.4-23.3a112.47,112.47,0,0,0,10.6-18.4,29.63,29.63,0,0,1,2.8-4.6,19.07,19.07,0,0,1,3.8-3.7C1122.2,671.4,1130,660.1,1131.3,666.3Z" transform="translate(0.3)"/><path id="path92" class="cls-3" d="M1041.7,784.9h0c.2-1,.5-2.3,1.1-2.5,1.5-.6,2.2,4.4,2,5.4-.8,3.4-4.9,3.4-6.6,6-.9,1.4-.1,3.8-1.1,4.9-.7.8-3,.7-3.6-.3s-.1-3.4-.1-4.6c0-1.8.3-2.2,1.8-3.4,1.2-1,2.4-1.9,3.6-2.9A9.06,9.06,0,0,0,1041.7,784.9Z" transform="translate(0.3)"/><path id="path94" class="cls-3" d="M874.7,1054.8c.1,2,.6,5,.1,7.4a6.43,6.43,0,0,1-1,2.4c-1.7,2.2-5.4,3.8-7.9,4.8a69.06,69.06,0,0,0-12.2,6c-4.3,2.9-7.7,6.5-12,9.4a33.67,33.67,0,0,0-6.2,5.1,5,5,0,0,1-5.6.7c-3.6-1.6-5.9-5.1-8.7-7.6-1.6-1.5-2.4-2.7-2.2-5a17.14,17.14,0,0,1,1.4-5.5c.9-1.6,2.5-2.5,4-3.6,2-1.6,4-3.3,6-4.8,2.6-1.8,4-4.2,5.6-6.9s2.5-5.8,4.6-8.1a58.07,58.07,0,0,1,6.5-5.6c1.9-1.6,4.2-3.6,6.7-4.4,3.3-1.1,7.7,1.3,10.2,3.3C868,1045.9,874.4,1048.9,874.7,1054.8Z" transform="translate(0.3)"/><path id="path96" class="cls-3" d="M787.9,1016.3c1.5,1.1,1,4-.5,4.8a17.13,17.13,0,0,1-4.9,1.4c-1.9.4-2.9,0-4.2-1.5-1.6-1.7-2.3-3.5-4.1-5s-3.1-2.6-3.2-5.1c0-1.6.1-2.9,1.9-3.5a7.2,7.2,0,0,1,6.2,1c1.2.9.9,1.6,1.3,2.7.5,1.3,1.8,1.8,2.8,2.6.8.6,1.5,1.3,2.3,1.8A16.89,16.89,0,0,1,787.9,1016.3Z" transform="translate(0.3)"/><path id="path98" class="cls-3" d="M774.8,1025.5h0c-.3.9-1.2,1.6-1.5,2.5s-.5,1.8-.8,2.7c-.6,1.4-1.4,3.3-3.1,2.9s-2.1-2.2-3.2-3.3-4.2-2.2-4.6-4c-.4-1.4,1.7-2.8,2.3-3.9s.5-2.1,1-3a11,11,0,0,1,2-2.3c1.2-1,2.6-1.3,3.3.2.4.8.3,1.4.8,2.1a13.67,13.67,0,0,0,2.4,1.8C774.2,1021.7,776.7,1024.8,774.8,1025.5Z" transform="translate(0.3)"/><path id="path100" class="cls-3" d="M769.5,1062.9c.5,2.4-1.8,3.1-3.2,4.2-.5.4-5.2,6.7-5.5,6.7-1.8-1-2.4-3.3-3.6-4.8-1.4-1.8-2.7-3.7-4.7-4.9-1.6-1-4.1-2.3-4-4.3s1.8-1.8,3-2.9c1.3-1.3,2.1-4.1,3.9-4.8s3,1.3,4,2.3a22.41,22.41,0,0,0,5.1,4.1C765.8,1059.5,769,1060.9,769.5,1062.9Z" transform="translate(0.3)"/><path id="path2950" class="cls-3" d="M1213.2,191.7l6.5-7.7c7.3-9,24.5,3.4,22.2,14.8l-3.6,15.3C1237,197.6,1218.5,192.2,1213.2,191.7Z" transform="translate(0.3)"/></g><g id="Overlay"><path id="path132" class="cls-5" d="M257.9,1038.8l16,3c2.4-1.9,12.6-9.7,14.4-7.7,2.3,2.4-6.3,11.1-8.3,13.7l3,17.9-4.4,4.2-5.5-14.8-5.6,5.1,2.1,6.7-4.3,3.6-4.1-9.8-10.2-5.3,4.4-4.4,6.7,3.3,5-5.2-13.6-6Z" transform="translate(0.3)"/><path id="path134" class="cls-5" d="M1341.1,644.9l16,3c2.4-1.9,12.6-9.7,14.4-7.7,2.3,2.4-6.4,11.1-8.3,13.7l3,17.9-4.4,4.2-5.6-14.8-5.6,5.1,2.1,6.7-4.3,3.6-4.1-9.8-10.2-5.3,4.4-4.4,6.7,3.3,5-5.2-13.6-6Z" transform="translate(0.3)"/><path id="path136" class="cls-5" d="M1657.5,1242.7l16,2.9c2.4-1.9,12.6-9.7,14.4-7.7,2.3,2.4-6.4,11.1-8.3,13.7l3,17.9-4.4,4.2-5.5-14.8-5.6,5.1,2.1,6.7-4.3,3.6-4.1-9.8-10.2-5.3,4.4-4.4,6.7,3.3,5-5.2-13.6-6Z" transform="translate(0.3)"/></g></svg>